<svg xmlns="http://www.w3.org/2000/svg" class="align-left_svg__icon" data-spm-anchor-id="a313x.7781069.1998910419.i29" viewBox="0 0 1024 1024"><path d="M128 256a42.667 42.667 0 0 1 42.667-42.667h682.666a42.667 42.667 0 1 1 0 85.334H170.667A42.667 42.667 0 0 1 128 256zm0 256a42.667 42.667 0 0 1 42.667-42.667h426.666a42.667 42.667 0 1 1 0 85.334H170.667A42.667 42.667 0 0 1 128 512zm0 256a42.667 42.667 0 0 1 42.667-42.667H768a42.667 42.667 0 1 1 0 85.334H170.667A42.667 42.667 0 0 1 128 768z"/></svg>