<svg xmlns="http://www.w3.org/2000/svg" class="align-right_svg__icon" data-spm-anchor-id="a313x.7781069.1998910419.i28" viewBox="0 0 1024 1024"><path d="M896 768a42.667 42.667 0 0 1-42.667 42.667H170.667a42.667 42.667 0 1 1 0-85.334h682.666A42.667 42.667 0 0 1 896 768zm0-256a42.667 42.667 0 0 1-42.667 42.667H426.667a42.667 42.667 0 1 1 0-85.334h426.666A42.667 42.667 0 0 1 896 512zm0-256a42.667 42.667 0 0 1-42.667 42.667H256a42.667 42.667 0 1 1 0-85.334h597.333A42.667 42.667 0 0 1 896 256z"/></svg>