<svg xmlns="http://www.w3.org/2000/svg" class="align-center_svg__icon" data-spm-anchor-id="a313x.7781069.1998910419.i26" viewBox="0 0 1024 1024"><path d="M128 256a42.667 42.667 0 0 1 42.667-42.667h682.666a42.667 42.667 0 1 1 0 85.334H170.667A42.667 42.667 0 0 1 128 256zm170.667 256a42.667 42.667 0 0 1 42.666-42.667h341.334a42.667 42.667 0 1 1 0 85.334H341.333A42.667 42.667 0 0 1 298.667 512zm-85.334 256A42.667 42.667 0 0 1 256 725.333h512a42.667 42.667 0 1 1 0 85.334H256A42.667 42.667 0 0 1 213.333 768z"/></svg>