<svg xmlns="http://www.w3.org/2000/svg" fill="none" viewBox="0 0 48 48"><path fill="#000" fill-rule="evenodd" d="M14.85 8.445a18.175 18.175 0 0 1 21.91 2.832 18.241 18.241 0 0 1 5.22 10.444 2 2 0 1 1-3.962.552 14.232 14.232 0 0 0-4.072-8.15 14.18 14.18 0 0 0-17.095-2.21 14.209 14.209 0 0 0-4.469 4.074H16c1.105 0 2 .897 2 2.003a2.002 2.002 0 0 1-2 2.003H8c-1.105 0-2-.897-2-2.003V9.977c0-1.107.895-2.004 2-2.004s2 .897 2 2.004v2.55a18.207 18.207 0 0 1 4.85-4.082ZM7.725 24.02a2 2 0 0 1 2.256 1.708 14.232 14.232 0 0 0 4.073 8.148 14.18 14.18 0 0 0 17.095 2.21 14.209 14.209 0 0 0 4.469-4.073H32a2 2 0 0 1-2-2.003c0-1.106.895-2.003 2-2.003h8c1.105 0 2 .897 2 2.003v8.013a2.002 2.002 0 0 1-2 2.004c-1.105 0-2-.897-2-2.004v-2.55a18.174 18.174 0 0 1-26.76 1.25A18.241 18.241 0 0 1 6.02 26.28a2.003 2.003 0 0 1 1.705-2.26Z" clip-rule="evenodd"/></svg>