<svg xmlns="http://www.w3.org/2000/svg" fill="none" viewBox="0 0 48 48"><path fill="#000" fill-rule="evenodd" d="M12 10a4 4 0 0 0-4 4v4a4 4 0 0 0 4 4h24a4 4 0 0 0 4-4v-4a4 4 0 0 0-4-4H12ZM6.343 8.343A8 8 0 0 1 12 6h24a8 8 0 0 1 8 8v4a8 8 0 0 1-8 8H12a8 8 0 0 1-8-8v-4a8 8 0 0 1 2.343-5.657Z" clip-rule="evenodd"/><path fill="#000" fill-rule="evenodd" d="M12 26a4 4 0 0 0-4 4v4a4 4 0 0 0 4 4h12a2 2 0 1 1 0 4H12a8 8 0 0 1-8-8v-4a8 8 0 0 1 8-8h21a2 2 0 1 1 0 4H12Zm19.757 5.757a6 6 0 1 1 8.485 8.485 6 6 0 0 1-8.485-8.485ZM36 34a2 2 0 1 0 0 4 2 2 0 0 0 0-4Z" clip-rule="evenodd"/><path fill="#000" fill-rule="evenodd" d="M36 27a2 2 0 0 1 2 2v3a2 2 0 1 1-4 0v-3a2 2 0 0 1 2-2Zm0 11a2 2 0 0 1 2 2v3a2 2 0 1 1-4 0v-3a2 2 0 0 1 2-2Z" clip-rule="evenodd"/><path fill="#000" fill-rule="evenodd" d="M43.796 31.5a2 2 0 0 1-.732 2.732l-2.598 1.5a2 2 0 0 1-2-3.464l2.598-1.5a2 2 0 0 1 2.732.732ZM34.272 37a2 2 0 0 1-.733 2.732l-2.6 1.5a2 2 0 1 1-1.998-3.464l2.6-1.5a2 2 0 0 1 2.731.733Z" clip-rule="evenodd"/><path fill="#000" fill-rule="evenodd" d="M28.208 31.5a2 2 0 0 1 2.732-.732l2.6 1.5a2 2 0 1 1-2 3.464l-2.6-1.5a2 2 0 0 1-.732-2.731Zm9.526 5.5a2 2 0 0 1 2.731-.732l2.6 1.5a2 2 0 0 1-1.998 3.464l-2.6-1.5a2 2 0 0 1-.733-2.731ZM14 14a2 2 0 0 1 2 2v.02a2 2 0 1 1-4 0V16a2 2 0 0 1 2-2Zm0 16a2 2 0 0 1 2 2v.02a2 2 0 1 1-4 0V32a2 2 0 0 1 2-2Z" clip-rule="evenodd"/></svg>