<svg xmlns="http://www.w3.org/2000/svg" fill="none" viewBox="0 0 48 48"><path fill="#000" fill-rule="evenodd" d="M5.172 28.828A4 4 0 0 0 8 30h4a4 4 0 0 0 4-4v-4a4 4 0 0 0-4-4H8a4 4 0 0 0-4 4v4a4 4 0 0 0 1.172 2.828ZM12 26H8v-4h4v4Zm21.172 2.828A4 4 0 0 0 36 30h4a4 4 0 0 0 4-4v-4a4 4 0 0 0-4-4h-4a4 4 0 0 0-4 4v4a4 4 0 0 0 1.172 2.828ZM40 26h-4v-4h4v4ZM19.172 42.828A4 4 0 0 0 22 44h4a4 4 0 0 0 4-4v-4a4 4 0 0 0-4-4h-4a4 4 0 0 0-4 4v4a4 4 0 0 0 1.172 2.828ZM26 40h-4v-4h4v4Zm-6.828-25.172A4 4 0 0 0 22 16h4a4 4 0 0 0 4-4V8a4 4 0 0 0-4-4h-4a4 4 0 0 0-4 4v4a4 4 0 0 0 1.172 2.828ZM26 12h-4V8h4v4Z" clip-rule="evenodd"/><path fill="#000" fill-rule="evenodd" d="M26 38a2 2 0 0 0 2 2 12 12 0 0 0 12-12 2 2 0 1 0-4 0 8 8 0 0 1-8 8 2 2 0 0 0-2 2ZM10 22a2 2 0 0 0 2-2 8 8 0 0 1 8-8 2 2 0 1 0 0-4A12 12 0 0 0 8 20a2 2 0 0 0 2 2Zm10 14a8 8 0 0 1-8-8 2 2 0 1 0-4 0 12 12 0 0 0 12 12 2 2 0 1 0 0-4Z" clip-rule="evenodd"/></svg>