<svg xmlns="http://www.w3.org/2000/svg" fill="none" viewBox="0 0 48 48"><path fill="#000" fill-rule="evenodd" d="M10 10a2 2 0 1 0 0 4h28a2 2 0 0 0 0-4H10ZM5.757 7.757A6 6 0 0 1 10 6h28a6 6 0 1 1 0 12H10A6 6 0 0 1 5.757 7.757Z" clip-rule="evenodd"/><path fill="#000" fill-rule="evenodd" d="M10 14a2 2 0 0 1 2 2v20a2 2 0 0 0 2 2h20a2 2 0 0 0 2-2V16a2 2 0 1 1 4 0v20a6 6 0 0 1-6 6H14a6 6 0 0 1-6-6V16a2 2 0 0 1 2-2Z" clip-rule="evenodd"/><path fill="#000" fill-rule="evenodd" d="M18 24a2 2 0 0 1 2-2h8a2 2 0 1 1 0 4h-8a2 2 0 0 1-2-2Z" clip-rule="evenodd"/></svg>