<svg xmlns="http://www.w3.org/2000/svg" fill="none" viewBox="0 0 48 48"><path fill="#000" fill-rule="evenodd" d="M16.586 34.586a2 2 0 0 1 2.828 0L24 39.172l4.586-4.586a2 2 0 1 1 2.828 2.828l-6 6a2 2 0 0 1-2.828 0l-6-6a2 2 0 0 1 0-2.828Z" clip-rule="evenodd"/><path fill="#000" fill-rule="evenodd" d="M24 28a2 2 0 0 1 2 2v12a2 2 0 1 1-4 0V30a2 2 0 0 1 2-2ZM22.586 4.586a2 2 0 0 1 2.828 0l6 6a2 2 0 1 1-2.828 2.828L24 8.828l-4.586 4.586a2 2 0 1 1-2.828-2.828l6-6Z" clip-rule="evenodd"/><path fill="#000" fill-rule="evenodd" d="M24 4a2 2 0 0 1 2 2v12a2 2 0 1 1-4 0V6a2 2 0 0 1 2-2Z" clip-rule="evenodd"/></svg>