<svg xmlns="http://www.w3.org/2000/svg" fill="none" viewBox="0 0 48 48"><path fill="#000" d="M13.36 34.491c-1.78.785-2.944 2.155-3.642 3.425C9.16 38.931 10.003 40 11.16 40c.487 0 .952-.196 1.31-.525 1.494-1.374 4.059-3.341 6.49-4.13 1.05-.34 1.96-1.24 1.96-2.345v-.559c0-.86-.573-1.607-1.262-2.123-.875-.656-1.737-1.743-1.737-3.318v-3c0-2.333 1-6.6 5-5 2 1 3 3 3 11v8a2 2 0 0 0 2 2h9c.551 0 1.558-.137 1.89-.636.141-.212.063-.486-.039-.72-1.169-2.676-2.996-4.246-4.416-5.04-.8-.45-1.435-1.248-1.435-2.166V24c0-3.333-1.8-10-9-10s-9 6.667-9 10v8.36c0 .953-.69 1.746-1.562 2.131Z"/><path fill="#000" fill-rule="evenodd" d="M12 10a2 2 0 0 0-2 2v24a2 2 0 0 0 2 2h24a2 2 0 0 0 2-2V12a2 2 0 0 0-2-2H12Zm-6 2a6 6 0 0 1 6-6h24a6 6 0 0 1 6 6v24a6 6 0 0 1-6 6H12a6 6 0 0 1-6-6V12Z" clip-rule="evenodd"/></svg>