<svg xmlns="http://www.w3.org/2000/svg" fill="none" viewBox="0 0 48 48"><path fill="#000" fill-rule="evenodd" d="M28.4 14.8a2 2 0 0 1 2.8-.4 12 12 0 0 1 4.589 11.842 2 2 0 0 1-3.93-.748A8 8 0 0 0 28.8 17.6a2 2 0 0 1-.4-2.8Zm4.084 14.858a2 2 0 0 1 0 2.828c-.401.401-.83.774-1.284 1.114a2 2 0 1 1-2.4-3.2c.302-.227.588-.475.856-.742a2 2 0 0 1 2.828 0Z" clip-rule="evenodd"/><path fill="#000" fill-rule="evenodd" d="M33.844 8.743a2 2 0 0 1 2.813-.299 20 20 0 0 1 5.249 24.636 2 2 0 0 1-3.564-1.816 16 16 0 0 0-4.2-19.709 2 2 0 0 1-.298-2.812Zm4.347 26.618a2 2 0 0 1-.01 2.828 20.16 20.16 0 0 1-1.524 1.367 2 2 0 0 1-2.514-3.112 15.99 15.99 0 0 0 1.22-1.093 2 2 0 0 1 2.828.01ZM20 10.972l-.283.364a2 2 0 0 1-3.158-2.456l.771-.99A3.6 3.6 0 0 1 24 10.134V14a2 2 0 1 1-4 0v-3.028Zm-4.184 2.121a2 2 0 0 1 .35 2.807l-2.587 3.328A2 2 0 0 1 12 20H8v8h4a2 2 0 0 1 1.579.772L20 37.028V22a2 2 0 1 1 4 0v15.865a3.6 3.6 0 0 1-6.67 2.245L11.022 32H8a4 4 0 0 1-4-4v-8a4 4 0 0 1 4-4h3.022l1.987-2.556a2 2 0 0 1 2.807-.35Z" clip-rule="evenodd"/><path fill="#000" fill-rule="evenodd" d="M4.586 4.586a2 2 0 0 1 2.828 0l36 36a2 2 0 1 1-2.828 2.828l-36-36a2 2 0 0 1 0-2.828Z" clip-rule="evenodd"/></svg>