<svg xmlns="http://www.w3.org/2000/svg" fill="none" viewBox="0 0 48 48"><path fill="#000" fill-rule="evenodd" d="M28.4 14.8a2 2 0 0 1 2.8-.4 12.001 12.001 0 0 1 0 19.2 2 2 0 0 1-2.4-3.2 8.001 8.001 0 0 0 0-12.8 2 2 0 0 1-.4-2.8Z" clip-rule="evenodd"/><path fill="#000" fill-rule="evenodd" d="M33.845 8.743a2 2 0 0 1 2.812-.299 20 20 0 0 1 0 31.112 2 2 0 0 1-2.514-3.111 16 16 0 0 0 0-24.89 2 2 0 0 1-.298-2.812ZM20 10.972l-6.421 8.256A2 2 0 0 1 12 20H8v8h4a2 2 0 0 1 1.579.772L20 37.028V10.972Zm-.935-4.574A3.6 3.6 0 0 1 24 10.135v27.73a3.6 3.6 0 0 1-6.67 2.245L11.022 32H8a4 4 0 0 1-4-4v-8a4 4 0 0 1 4-4h3.022l6.308-8.11a3.6 3.6 0 0 1 1.735-1.492Z" clip-rule="evenodd"/></svg>