<svg xmlns="http://www.w3.org/2000/svg" fill="none" viewBox="0 0 48 48"><path fill="#000" fill-rule="evenodd" d="M14.1 8.1a14 14 0 1 1 19.8 19.8A14 14 0 0 1 14.1 8.1ZM24 8a10 10 0 1 0 0 20 10 10 0 0 0 0-20Z" clip-rule="evenodd"/><path fill="#000" fill-rule="evenodd" d="M33.392 22.268a2 2 0 0 1 2.732.732l6.8 11.778a2 2 0 0 1-1.86 2.996l-5.866-.378-2.605 5.27a2 2 0 0 1-3.525.114L22.268 31a2 2 0 1 1 3.464-2l4.931 8.543 1.54-3.115a2 2 0 0 1 1.922-1.11l3.467.224L32.66 25a2 2 0 0 1 .732-2.732Z" clip-rule="evenodd"/><path fill="#000" fill-rule="evenodd" d="M14.604 22.268A2 2 0 0 1 15.336 25l-4.931 8.543 3.466-.225a2 2 0 0 1 1.922 1.11l1.54 3.114L22.264 29a2 2 0 1 1 3.464 2l-6.8 11.778a2 2 0 0 1-3.525-.114l-2.605-5.268-5.865.38a2 2 0 0 1-1.861-2.996l6.8-11.78a2 2 0 0 1 2.732-.732Z" clip-rule="evenodd"/></svg>