<svg xmlns="http://www.w3.org/2000/svg" fill="none" viewBox="0 0 48 48"><path fill="#000" d="m27.105 10.789.04.02A11.999 11.999 0 0 1 34 21.048V27c0 .08.005.16.014.24A10 10 0 0 0 35.26 31H12.74a10.001 10.001 0 0 0 1.245-3.76c.01-.08.015-.16.015-.24v-5.951a12 12 0 0 1 6.894-10.26 6.944 6.944 0 0 1 6.212 0Zm1.77-3.588-.02-.01L28 9l-.895 1.789m1.77-3.588a10.944 10.944 0 0 0-9.75 0A16 16 0 0 0 10 21v5.87a6 6 0 0 1-2.986 4.39A2 2 0 0 0 8 35h32a2 2 0 0 0 .985-3.74A6 6 0 0 1 38 26.87V21c0-.031 0-.063-.002-.094a15.999 15.999 0 0 0-9.124-13.705Z"/><path fill="#000" fill-rule="evenodd" d="M18 32a2 2 0 0 1 2 2v1.5c0 .447.234 1.04.957 1.582.735.55 1.825.918 3.043.918 1.218 0 2.308-.367 3.043-.918.723-.543.957-1.135.957-1.582V34a2 2 0 1 1 4 0v1.5c0 1.94-1.03 3.637-2.557 4.782C27.926 41.419 25.964 42 24 42c-1.965 0-3.927-.58-5.443-1.718C17.03 39.137 16 37.44 16 35.5V34a2 2 0 0 1 2-2Z" clip-rule="evenodd"/></svg>