<svg xmlns="http://www.w3.org/2000/svg" fill="none" viewBox="0 0 48 48"><path fill="#000" d="M5.172 7.172A4 4 0 0 1 8 6h32a4 4 0 0 1 4 4v20a4 4 0 0 1-4 4H8a4 4 0 0 1-4-4V10a4 4 0 0 1 1.172-2.828ZM40 10H8v20h32V10Z"/><path fill="#000" fill-rule="evenodd" d="M6 40a2 2 0 0 1 2-2h32a2 2 0 1 1 0 4H8a2 2 0 0 1-2-2Z" clip-rule="evenodd"/><path fill="#000" d="M18 30a2 2 0 0 0-2 2v8a2 2 0 1 0 4 0v-8a2 2 0 0 0-2-2Z"/><path fill="#000" fill-rule="evenodd" d="M30 30a2 2 0 0 1 2 2v8a2 2 0 1 1-4 0v-8a2 2 0 0 1 2-2ZM18 14a2 2 0 0 1 2 2v8a2 2 0 1 1-4 0v-8a2 2 0 0 1 2-2Zm6 6a2 2 0 0 1 2 2v2a2 2 0 1 1-4 0v-2a2 2 0 0 1 2-2Zm6-2a2 2 0 0 1 2 2v4a2 2 0 1 1-4 0v-4a2 2 0 0 1 2-2Z" clip-rule="evenodd"/><path fill="#000" fill-rule="evenodd" d="M24 20a2 2 0 0 1 2 2v2a2 2 0 1 1-4 0v-2a2 2 0 0 1 2-2Z" clip-rule="evenodd"/></svg>