<svg xmlns="http://www.w3.org/2000/svg" class="biu_svg__icon" viewBox="0 0 1024 1024"><path d="M632.277 938.667a83.285 83.285 0 0 1-53.568-19.606L456.576 816.405 325.291 921.152a42.667 42.667 0 0 1-69.27-33.792l2.411-232.875-113.216-99.797c-20.672-17.344-31.595-44.715-28.501-72.512a83.264 83.264 0 0 1 44.672-64.917L787.115 94.72a81.664 81.664 0 0 1 90.069 9.387 81.664 81.664 0 0 1 27.456 86.314L712.81 877.632a83.136 83.136 0 0 1-55.722 57.28 83.84 83.84 0 0 1-24.81 3.776zM457.28 718.613c9.77 0 19.52 3.328 27.456 9.984l146.688 123.286 189.419-678.55L202.944 491.84l126.55 111.552a42.655 42.655 0 0 1 14.442 32.427l-1.664 162.645 88.405-70.528a42.56 42.56 0 0 1 26.603-9.323z"/><path d="M462.848 590.741a42.645 42.645 0 0 1-30.165-72.832L592.32 358.336a42.645 42.645 0 1 1 60.31 60.33L493.012 578.24a42.586 42.586 0 0 1-30.165 12.501z"/></svg>