<svg xmlns="http://www.w3.org/2000/svg" fill="none" viewBox="0 0 48 48"><path fill="#000" fill-rule="evenodd" d="M9.844 8.704A2 2 0 0 1 11.368 8h25.264a2 2 0 0 1 1.53.712l6.84 8.127a4.18 4.18 0 0 1-.098 5.53l-.009.01-19.43 20.98a2 2 0 0 1-2.937-.003L3.093 22.28a4.178 4.178 0 0 1-.08-5.543l6.831-8.033ZM12.293 12l-6.249 7.347a.178.178 0 0 0 .002.235l.001.002 17.954 19.47L41.952 19.67l.002-.002a.18.18 0 0 0 .002-.236l-.01-.012L35.7 12H12.293Z" clip-rule="evenodd"/><path fill="#000" fill-rule="evenodd" d="M16.586 20.586a2 2 0 0 1 2.828 0L24 25.172l4.586-4.586a2 2 0 1 1 2.828 2.828l-6 6a2 2 0 0 1-2.828 0l-6-6a2 2 0 0 1 0-2.828Z" clip-rule="evenodd"/></svg>