<svg xmlns="http://www.w3.org/2000/svg" class="camera_svg__icon" viewBox="0 0 1024 1024"><path d="M333.077 170.944A81.067 81.067 0 0 1 390.4 147.2h243.2a81.067 81.067 0 0 1 81.067 81.067A40.533 40.533 0 0 0 755.2 268.8h40.533a121.6 121.6 0 0 1 121.6 121.6v364.8a121.6 121.6 0 0 1-121.6 121.6H228.267a121.6 121.6 0 0 1-121.6-121.6V390.4a121.6 121.6 0 0 1 121.6-121.6H268.8a40.533 40.533 0 0 0 40.533-40.533 81.067 81.067 0 0 1 23.744-57.323zM633.6 228.267H390.4a121.6 121.6 0 0 1-121.6 121.6h-40.533a40.533 40.533 0 0 0-40.534 40.533v364.8a40.533 40.533 0 0 0 40.534 40.533h567.466a40.533 40.533 0 0 0 40.534-40.533V390.4a40.533 40.533 0 0 0-40.534-40.533H755.2a121.6 121.6 0 0 1-121.6-121.6z"/><path d="M397.355 437.888A162.133 162.133 0 1 1 626.645 667.2a162.133 162.133 0 0 1-229.29-229.312zM512 471.467a81.067 81.067 0 1 0 0 162.133 81.067 81.067 0 0 0 0-162.133z"/></svg>