<svg xmlns="http://www.w3.org/2000/svg" class="card-details_svg__icon" viewBox="0 0 1024 1024"><path d="M153.003 153.003A85.333 85.333 0 0 1 213.333 128H384a85.333 85.333 0 0 1 85.333 85.333V384A85.333 85.333 0 0 1 384 469.333H213.333A85.333 85.333 0 0 1 128 384V213.333a85.333 85.333 0 0 1 25.003-60.33zM384 213.333H213.333V384H384V213.333zM153.003 579.67a85.333 85.333 0 0 1 60.33-25.002H384A85.333 85.333 0 0 1 469.333 640v170.667A85.333 85.333 0 0 1 384 896H213.333A85.333 85.333 0 0 1 128 810.667V640a85.333 85.333 0 0 1 25.003-60.33zM384 640H213.333v170.667H384V640zm195.67-60.33A85.333 85.333 0 0 1 640 554.666h170.667A85.333 85.333 0 0 1 896 640v170.667A85.333 85.333 0 0 1 810.667 896H640a85.333 85.333 0 0 1-85.333-85.333V640a85.333 85.333 0 0 1 25.002-60.33zM810.666 640H640v170.667h170.667V640zM579.669 153.003A85.333 85.333 0 0 1 640 128h170.667A85.333 85.333 0 0 1 896 213.333V384a85.333 85.333 0 0 1-85.333 85.333H640A85.333 85.333 0 0 1 554.667 384V213.333a85.333 85.333 0 0 1 25.002-60.33zm230.998 60.33H640V384h170.667V213.333z"/></svg>