<svg xmlns="http://www.w3.org/2000/svg" fill="none" viewBox="0 0 48 48"><path fill="#000" fill-rule="evenodd" d="M7 5a2 2 0 0 1 2 2v32h34a2 2 0 1 1 0 4H7a2 2 0 0 1-2-2V7a2 2 0 0 1 2-2Z" clip-rule="evenodd"/><path fill="#000" fill-rule="evenodd" d="M40 33c1.105 0 2 .716 2 1.6v4.8c0 .884-.895 1.6-2 1.6s-2-.716-2-1.6v-4.8c0-.884.895-1.6 2-1.6Zm-8-4c1.105 0 2 .767 2 1.714v8.572c0 .947-.895 1.714-2 1.714s-2-.767-2-1.714v-8.572c0-.947.895-1.714 2-1.714Zm-8-5c1.105 0 2 .761 2 1.7v13.6c0 .939-.895 1.7-2 1.7s-2-.761-2-1.7V25.7c0-.939.895-1.7 2-1.7Zm-8 5c1.105 0 2 .767 2 1.714v8.572c0 .947-.895 1.714-2 1.714s-2-.767-2-1.714v-8.572c0-.947.895-1.714 2-1.714Zm-.738-6.83C13.386 23.31 11.029 24 7.9 24 6.85 24 6 23.105 6 22s.85-2 1.9-2c2.571 0 4.252-.56 5.463-1.295 1.232-.748 2.123-1.762 3.028-2.954.157-.207.32-.427.49-.657.737-.998 1.6-2.167 2.628-3.068C20.899 10.806 22.63 10 25 10c2.369 0 4.1.806 5.491 2.026 1.027.9 1.89 2.07 2.628 3.068.17.23.333.45.49.657.905 1.191 1.796 2.206 3.028 2.954C37.848 19.441 39.529 20 42.1 20c1.05 0 1.9.895 1.9 2s-.85 2-1.9 2c-3.129 0-5.486-.69-7.362-1.83-1.855-1.127-3.102-2.613-4.097-3.92-.233-.308-.447-.595-.647-.865-.71-.956-1.253-1.688-1.935-2.286C27.312 14.444 26.43 14 25 14c-1.431 0-2.312.444-3.059 1.099-.682.598-1.226 1.33-1.935 2.286-.2.27-.414.557-.647.864-.995 1.308-2.242 2.794-4.097 3.92Z" clip-rule="evenodd"/></svg>