<svg xmlns="http://www.w3.org/2000/svg" fill="none" viewBox="0 0 48 48"><g clip-path="url(#a)"><mask id="b" width="48" height="48" x="0" y="0" maskUnits="userSpaceOnUse" style="mask-type:luminance"><path fill="#fff" d="M48 0H0v48h48V0Z"/></mask><g fill="#242424" fill-rule="evenodd" clip-rule="evenodd" mask="url(#b)"><path d="m35.414 15.414-10 10a2 2 0 0 1-2.828 0l-10-10a2 2 0 0 1 2.828-2.828L24 21.172l8.585-8.586a2 2 0 1 1 2.83 2.828Z"/><path d="m35.414 27.414-10 10a2 2 0 0 1-2.828 0l-10-10a2 2 0 0 1 2.828-2.828L24 33.172l8.585-8.585a2 2 0 1 1 2.83 2.827Z"/></g></g><defs><clipPath id="a"><path fill="#fff" d="M0 0h48v48H0z"/></clipPath></defs></svg>