<svg xmlns="http://www.w3.org/2000/svg" class="close_svg__icon" viewBox="0 0 1024 1024"><path d="M512 870.4c-197.93 0-358.4-160.47-358.4-358.4S314.07 153.6 512 153.6 870.4 314.07 870.4 512 709.93 870.4 512 870.4zm0 89.6c247.424 0 448-200.576 448-448S759.424 64 512 64 64 264.576 64 512s200.576 448 448 448z"/><path d="M686.23 686.23a44.8 44.8 0 0 1-63.36 0l-285.1-285.1a44.8 44.8 0 0 1 63.36-63.36l285.1 285.1a44.8 44.8 0 0 1 0 63.36z"/><path d="M686.23 337.77a44.8 44.8 0 0 1 0 63.36l-285.1 285.1a44.8 44.8 0 0 1-63.36-63.36l285.1-285.1a44.8 44.8 0 0 1 63.36 0z"/></svg>