<svg xmlns="http://www.w3.org/2000/svg" fill="none" viewBox="0 0 48 48"><path fill="#000" fill-rule="evenodd" d="M21.917 6.218a12.874 12.874 0 0 1 4.789.013c1.58.304 3.09.903 4.445 1.77a12.258 12.258 0 0 1 3.448 3.308 11.857 11.857 0 0 1 1.892 4.393c.16.779.24 1.57.24 2.36 2.173.057 4.245.995 5.786 2.625C44.107 22.37 45 24.651 45 27.03s-.893 4.66-2.483 6.343C40.927 35.055 38.77 36 36.522 36c-1.04 0-1.884-.892-1.884-1.993s.843-1.994 1.884-1.994a4.58 4.58 0 0 0 3.33-1.46 5.134 5.134 0 0 0 1.38-3.523 5.13 5.13 0 0 0-1.38-3.524 4.583 4.583 0 0 0-3.33-1.46h-1.884a1.847 1.847 0 0 1-1.471-.747 2.081 2.081 0 0 1-.367-1.682 7.49 7.49 0 0 0 .01-3.068 7.756 7.756 0 0 0-1.243-2.873 8.404 8.404 0 0 0-2.367-2.264 9.045 9.045 0 0 0-3.168-1.258 9.309 9.309 0 0 0-3.46-.01 9.049 9.049 0 0 0-3.177 1.24c-1.929 1.22-3.21 3.078-3.643 5.119-.2.94-1.005 1.594-1.914 1.555a6.784 6.784 0 0 0-6.888 5.215 6.769 6.769 0 0 0 .49 4.499 6.783 6.783 0 0 0 3.27 3.211c.954.44 1.39 1.615.974 2.624-.416 1.01-1.526 1.47-2.48 1.03a10.647 10.647 0 0 1-5.12-5.053 10.964 10.964 0 0 1-.79-7.278 10.78 10.78 0 0 1 3.928-6.09 10.43 10.43 0 0 1 5.28-2.097c.907-2.542 2.66-4.703 4.96-6.157a12.692 12.692 0 0 1 4.455-1.744Z" clip-rule="evenodd"/><path fill="#000" fill-rule="evenodd" d="M24 21c1.105 0 2 .855 2 1.91v17.18c0 1.055-.895 1.91-2 1.91s-2-.855-2-1.91V22.91c0-1.055.895-1.91 2-1.91Z" clip-rule="evenodd"/><path fill="#000" fill-rule="evenodd" d="M16.586 34.469c.78-.625 2.047-.625 2.828 0L24 38.137l4.586-3.668c.78-.625 2.047-.625 2.828 0 .781.624.781 1.637 0 2.262l-6 4.8c-.78.625-2.047.625-2.828 0l-6-4.8c-.781-.625-.781-1.638 0-2.262Z" clip-rule="evenodd"/></svg>