<svg xmlns="http://www.w3.org/2000/svg" fill="none" viewBox="0 0 48 48"><path fill="#000" fill-rule="evenodd" d="M17.801 9.429a14.9 14.9 0 0 1 20.782 9.701 9.545 9.545 0 0 1-2.633 18.838H14.582A11.71 11.71 0 0 1 2.039 27.244a11.714 11.714 0 0 1 9.663-12.505 14.9 14.9 0 0 1 6.099-5.31Zm17.12 11.691a10.9 10.9 0 0 0-20.264-3.545 2 2 0 0 1-1.58 1.016 7.712 7.712 0 0 0-7.052 8.324v.002a7.712 7.712 0 0 0 8.316 7.058 2.02 2.02 0 0 1 .163-.007h21.502c.04 0 .08.001.12.004a5.543 5.543 0 0 0 5.864-5.203v-.001a5.544 5.544 0 0 0-5.2-5.868 2 2 0 0 1-1.868-1.78Z" clip-rule="evenodd"/></svg>