<svg xmlns="http://www.w3.org/2000/svg" fill="none" viewBox="0 0 48 48"><path fill="#000" fill-rule="evenodd" d="M19.334 16A3.334 3.334 0 0 0 16 19.334v17.332A3.333 3.333 0 0 0 19.334 40h17.332A3.333 3.333 0 0 0 40 36.666V19.334A3.333 3.333 0 0 0 36.666 16H19.334Zm-5.186-1.852A7.334 7.334 0 0 1 19.334 12h17.332A7.333 7.333 0 0 1 44 19.334v17.332A7.333 7.333 0 0 1 36.666 44H19.334A7.333 7.333 0 0 1 12 36.666V19.334c0-1.945.773-3.81 2.148-5.186Z" clip-rule="evenodd"/><path fill="#000" fill-rule="evenodd" d="M10 8c-1.095 0-2 .905-2 2v19.997a2.01 2.01 0 0 0 1.015 1.74 2 2 0 0 1-1.982 3.475A6.01 6.01 0 0 1 4 30.005V10c0-3.305 2.695-6 6-6h20c1.125 0 2.126.3 2.98.92.813.59 1.359 1.372 1.768 2.108a2 2 0 1 1-3.496 1.944c-.275-.494-.479-.711-.62-.815C30.531 8.085 30.374 8 30 8H10Z" clip-rule="evenodd"/></svg>