<svg xmlns="http://www.w3.org/2000/svg" fill="none" viewBox="0 0 48 48"><path fill="#000" fill-rule="evenodd" d="M20 20a2 2 0 0 1 2 2v12a2 2 0 1 1-4 0V22a2 2 0 0 1 2-2Zm8 0a2 2 0 0 1 2 2v12a2 2 0 1 1-4 0V22a2 2 0 0 1 2-2ZM6 14a2 2 0 0 1 2-2h32a2 2 0 1 1 0 4H8a2 2 0 0 1-2-2Z" clip-rule="evenodd"/><path fill="#000" fill-rule="evenodd" d="M9.834 12.007a2 2 0 0 1 2.16 1.827l2 24c.004.055.006.11.006.166a2 2 0 0 0 2 2h16a2 2 0 0 0 2-2c0-.055.002-.11.007-.166l2-24a2 2 0 0 1 3.986.332L38 38.092A6 6 0 0 1 32 44H16a6 6 0 0 1-6-5.908L8.008 14.166a2 2 0 0 1 1.827-2.16Z" clip-rule="evenodd"/><path fill="#000" fill-rule="evenodd" d="M17.172 5.172A4 4 0 0 1 20 4h8a4 4 0 0 1 4 4v6a2 2 0 1 1-4 0V8h-8v6a2 2 0 1 1-4 0V8a4 4 0 0 1 1.172-2.828Z" clip-rule="evenodd"/></svg>