<svg xmlns="http://www.w3.org/2000/svg" fill="none" viewBox="0 0 48 48"><path fill="#000" fill-rule="evenodd" d="M8 32a2 2 0 0 1 2 2v4a2 2 0 0 0 2 2h24a2 2 0 0 0 2-2v-4a2 2 0 1 1 4 0v4a6 6 0 0 1-6 6H12a6 6 0 0 1-6-6v-4a2 2 0 0 1 2-2Z" clip-rule="evenodd"/><path fill="#000" fill-rule="evenodd" d="M12.586 20.586a2 2 0 0 1 2.828 0L24 29.172l8.586-8.586a2 2 0 1 1 2.828 2.828l-10 10a2 2 0 0 1-2.828 0l-10-10a2 2 0 0 1 0-2.828Z" clip-rule="evenodd"/><path fill="#000" fill-rule="evenodd" d="M24 6a2 2 0 0 1 2 2v24a2 2 0 1 1-4 0V8a2 2 0 0 1 2-2Z" clip-rule="evenodd"/></svg>