<svg xmlns="http://www.w3.org/2000/svg" fill="none" viewBox="0 0 48 48"><path fill="#000" fill-rule="evenodd" d="M7.757 13.757A6 6 0 0 1 12 12h2a2 2 0 1 1 0 4h-2a2 2 0 0 0-2 2v18a2 2 0 0 0 2 2h18a2 2 0 0 0 2-2v-2a2 2 0 1 1 4 0v2a6 6 0 0 1-6 6H12a6 6 0 0 1-6-6V18a6 6 0 0 1 1.757-4.243Z" clip-rule="evenodd"/><path fill="#000" fill-rule="evenodd" d="M33.417 5.814a6.2 6.2 0 0 1 8.769 8.769l-.002.001-16.767 16.828A2 2 0 0 1 24 32h-6a2 2 0 0 1-2-2v-6a2 2 0 0 1 .588-1.417L33.416 5.816l.001-.002ZM37.8 8a2.2 2.2 0 0 0-1.556.644L20 24.831V28h3.17l16.186-16.244A2.2 2.2 0 0 0 37.8 8Z" clip-rule="evenodd"/><path fill="#000" fill-rule="evenodd" d="M30.586 8.586a2 2 0 0 1 2.828 0l6 6a2 2 0 1 1-2.828 2.828l-6-6a2 2 0 0 1 0-2.828Z" clip-rule="evenodd"/></svg>