<svg xmlns="http://www.w3.org/2000/svg" class="icon" style="width:1em;height:1em;vertical-align:middle;fill:currentColor;overflow:hidden" viewBox="0 0 1024 1024"><path fill="#000" d="M122.816 165.483A128 128 0 0 1 213.333 128H512a128 128 0 0 1 128 128v85.333a42.667 42.667 0 1 1-85.333 0V256A42.667 42.667 0 0 0 512 213.333H213.333A42.667 42.667 0 0 0 170.667 256v512a42.667 42.667 0 0 0 42.666 42.667H512A42.667 42.667 0 0 0 554.667 768v-85.333a42.667 42.667 0 1 1 85.333 0V768a128 128 0 0 1-128 128H213.333a128 128 0 0 1-128-128V256a128 128 0 0 1 37.483-90.517z"/><path fill="#000" d="M737.835 353.835a42.667 42.667 0 0 1 60.33 0l128 128a42.667 42.667 0 0 1 0 60.33l-128 128a42.667 42.667 0 1 1-60.33-60.33l55.168-55.168H298.667a42.667 42.667 0 1 1 0-85.334h494.336l-55.168-55.168a42.667 42.667 0 0 1 0-60.33z"/></svg>