<svg xmlns="http://www.w3.org/2000/svg" fill="none" viewBox="0 0 48 48"><path fill="#000" fill-rule="evenodd" d="M38 24a2 2 0 0 0-2-2h-4a2 2 0 1 1 0-4h4a6 6 0 0 1 6 6v14a6 6 0 0 1-6 6H12a6 6 0 0 1-6-6V24a6 6 0 0 1 6-6h4a2 2 0 1 1 0 4h-4a2 2 0 0 0-2 2v14a2 2 0 0 0 2 2h24a2 2 0 0 0 2-2V24Z" clip-rule="evenodd"/><path fill="#000" fill-rule="evenodd" d="M31.414 13.414a2 2 0 0 1-2.828 0L26 10.83V30a2 2 0 0 1-4 0V6a2 2 0 0 1 3.414-1.414l6 6a2 2 0 0 1 0 2.828Z" clip-rule="evenodd"/><path fill="#000" fill-rule="evenodd" d="M25.414 4.586a2 2 0 0 1 0 2.828l-6 6a2 2 0 1 1-2.828-2.828l6-6a2 2 0 0 1 2.828 0Z" clip-rule="evenodd"/></svg>