<svg xmlns="http://www.w3.org/2000/svg" fill="none" viewBox="0 0 48 48"><path fill="#000" fill-rule="evenodd" d="M28 4a2 2 0 0 1 2 2v8h8a2 2 0 1 1 0 4h-8a4 4 0 0 1-4-4V6a2 2 0 0 1 2-2Z" clip-rule="evenodd"/><path fill="#000" fill-rule="evenodd" d="M14 8a2 2 0 0 0-2 2v28a2 2 0 0 0 2 2h9a2 2 0 1 1 0 4h-9a6 6 0 0 1-6-6V10a6 6 0 0 1 6-6h14a2 2 0 0 1 1.414.586l10 10A2 2 0 0 1 40 16v10a2 2 0 1 1-4 0v-9.172L27.172 8H14Zm20.586 25.414a2 2 0 1 1 2.828-2.828l6 6a2 2 0 0 1 0 2.828l-6 6a2 2 0 1 1-2.828-2.828L37.172 40H28a2 2 0 1 1 0-4h9.172l-2.586-2.586Z" clip-rule="evenodd"/></svg>