<svg xmlns="http://www.w3.org/2000/svg" fill="none" viewBox="0 0 48 48"><path fill="#000" fill-rule="evenodd" d="M34.586 33.414a2 2 0 1 1 2.828-2.828l6 6a2 2 0 0 1 0 2.828l-6 6a2 2 0 1 1-2.828-2.828L37.172 40H28a2 2 0 1 1 0-4h9.172l-2.586-2.586ZM5.172 5.172A4 4 0 0 1 8 4h4a4 4 0 0 1 4 4v4a4 4 0 0 1-4 4H8a4 4 0 0 1-4-4V8a4 4 0 0 1 1.172-2.828ZM12 8H8v4h4V8Zm21.172-2.828A4 4 0 0 1 36 4h4a4 4 0 0 1 4 4v4a4 4 0 0 1-4 4h-4a4 4 0 0 1-4-4V8a4 4 0 0 1 1.172-2.828ZM40 8h-4v4h4V8ZM5.172 33.172A4 4 0 0 1 8 32h4a4 4 0 0 1 4 4v4a4 4 0 0 1-4 4H8a4 4 0 0 1-4-4v-4a4 4 0 0 1 1.172-2.828ZM12 36H8v4h4v-4Z" clip-rule="evenodd"/><path fill="#000" fill-rule="evenodd" d="M10 12a2 2 0 0 1 2 2v20a2 2 0 1 1-4 0V14a2 2 0 0 1 2-2Zm28 0a2 2 0 0 1 2 2v9a2 2 0 1 1-4 0v-9a2 2 0 0 1 2-2Zm-26-2a2 2 0 0 1 2-2h20a2 2 0 1 1 0 4H14a2 2 0 0 1-2-2Zm0 28a2 2 0 0 1 2-2h4a2 2 0 1 1 0 4h-4a2 2 0 0 1-2-2Z" clip-rule="evenodd"/></svg>