<svg xmlns="http://www.w3.org/2000/svg" fill="none" viewBox="0 0 48 48"><path fill="#000" fill-rule="evenodd" d="M22.584 19.76a2 2 0 0 1 0 2.828 2 2 0 1 0 2.83 2.828 2 2 0 0 1 2.828 2.828 6 6 0 0 1-8.486-8.484 2 2 0 0 1 2.828 0Z" clip-rule="evenodd"/><path fill="#000" fill-rule="evenodd" d="M23.995 14a16.115 16.115 0 0 0-3.238.32 2 2 0 1 1-.794-3.92c1.33-.27 2.683-.403 4.04-.4h.002H24h.003c8.11.001 14.673 4.573 19.712 12.971a2 2 0 0 1 0 2.058c-1.394 2.324-2.905 4.358-4.538 6.085a2 2 0 1 1-2.907-2.748c1.17-1.238 2.297-2.69 3.376-4.366C35.219 17.118 29.998 14 24 14h-.005Zm-7.655-.401a2 2 0 0 1-.647 2.753C13.068 17.978 10.61 20.494 8.354 24 12.781 30.882 18.002 34 24 34h.013c2.93.02 5.804-.796 8.288-2.35a2 2 0 1 1 2.122 3.392A19.434 19.434 0 0 1 23.993 38c-8.108-.002-14.67-4.574-19.708-12.971a2 2 0 0 1 0-2.058c2.66-4.432 5.745-7.816 9.302-10.02a2 2 0 0 1 2.753.648Z" clip-rule="evenodd"/><path fill="#000" fill-rule="evenodd" d="M4.586 4.586a2 2 0 0 1 2.828 0l36 36a2 2 0 1 1-2.828 2.828l-36-36a2 2 0 0 1 0-2.828Z" clip-rule="evenodd"/></svg>