<svg xmlns="http://www.w3.org/2000/svg" class="icon" viewBox="0 0 1024 1024"><path d="M421.483 421.483a128 128 0 1 1 181.013 181.013 128 128 0 0 1-181.013-181.013zM512 469.333a42.667 42.667 0 1 0 0 85.334 42.667 42.667 0 0 0 0-85.334z"/><path d="M178.219 512C272.66 658.816 384.043 725.333 512 725.333S751.36 658.816 845.781 512C751.34 365.184 639.957 298.667 512 298.667S272.64 365.184 178.219 512zm-86.806-21.952C198.933 310.869 338.965 213.333 512 213.333s313.088 97.536 420.587 276.715a42.667 42.667 0 0 1 0 43.904C825.067 713.131 685.035 810.667 512 810.667S198.912 713.13 91.413 533.952a42.667 42.667 0 0 1 0-43.904z"/></svg>