<svg xmlns="http://www.w3.org/2000/svg" class="file_svg__icon" data-spm-anchor-id="a313x.7781069.1998910419.i1" viewBox="0 0 1024 1024"><path d="M597.333 85.333A42.667 42.667 0 0 1 640 128v170.667h170.667a42.667 42.667 0 1 1 0 85.333H640a85.333 85.333 0 0 1-85.333-85.333V128a42.667 42.667 0 0 1 42.666-42.667z"/><path d="M298.667 170.667A42.667 42.667 0 0 0 256 213.333v597.334a42.667 42.667 0 0 0 42.667 42.666h426.666A42.667 42.667 0 0 0 768 810.667v-451.67l-188.33-188.33H298.666zm-90.518-47.851a128 128 0 0 1 90.518-37.483h298.666A42.667 42.667 0 0 1 627.5 97.835l213.333 213.333a42.667 42.667 0 0 1 12.501 30.165v469.334a128 128 0 0 1-128 128H298.667a128 128 0 0 1-128-128V213.333a128 128 0 0 1 37.482-90.517z"/><path d="M341.333 725.333A42.667 42.667 0 0 1 384 682.667h256A42.667 42.667 0 1 1 640 768H384a42.667 42.667 0 0 1-42.667-42.667zm0-170.666A42.667 42.667 0 0 1 384 512h256a42.667 42.667 0 1 1 0 85.333H384a42.667 42.667 0 0 1-42.667-42.666z"/></svg>