<svg xmlns="http://www.w3.org/2000/svg" fill="none" viewBox="0 0 48 48"><path fill="#000" fill-rule="evenodd" d="M28 4a2 2 0 0 1 2 2v8h8a2 2 0 1 1 0 4h-8a4 4 0 0 1-4-4V6a2 2 0 0 1 2-2Z" clip-rule="evenodd"/><path fill="#000" fill-rule="evenodd" d="M14 8a2 2 0 0 0-2 2v28a2 2 0 0 0 2 2h20a2 2 0 0 0 2-2V16.828L27.172 8H14ZM9.757 5.757A6 6 0 0 1 14 4h14a2 2 0 0 1 1.414.586l10 10A2 2 0 0 1 40 16v22a6 6 0 0 1-6 6H14a6 6 0 0 1-6-6V10a6 6 0 0 1 1.757-4.243Z" clip-rule="evenodd"/><path fill="#000" fill-rule="evenodd" d="M20 28a2 2 0 0 1 2-2h2a2 2 0 0 1 2 2v6a2 2 0 1 1 0 4h-2a2 2 0 0 1-2-2v-6a2 2 0 0 1-2-2Zm2-6a2 2 0 0 1 2-2h.02a2 2 0 1 1 0 4H24a2 2 0 0 1-2-2Z" clip-rule="evenodd"/></svg>