<svg xmlns="http://www.w3.org/2000/svg" class="filter_svg__icon" viewBox="0 0 1024 1024"><path d="M220.544 173.077a42.667 42.667 0 0 1 14.123-2.41h554.666a42.667 42.667 0 0 1 14.123 2.41 85.333 85.333 0 0 1 42.667 128 41.76 41.76 0 0 1-3.883 4.95L640 528.49v282.176a42.667 42.667 0 0 1-68.267 34.133l-170.666-128A42.667 42.667 0 0 1 384 682.667V528.49L181.76 306.027a42.603 42.603 0 0 1-3.883-4.95 85.333 85.333 0 0 1 42.667-128zM251.605 256 458.24 483.307A42.667 42.667 0 0 1 469.333 512v149.333l85.334 64V512a42.667 42.667 0 0 1 11.093-28.693L772.395 256h-520.79z"/></svg>