<svg xmlns="http://www.w3.org/2000/svg" class="filter-off_svg__icon" viewBox="0 0 1024 1024"><path d="M97.835 97.835a42.667 42.667 0 0 1 60.33 0l768 768a42.667 42.667 0 1 1-60.33 60.33l-768-768a42.667 42.667 0 0 1 0-60.33z"/><path d="M341.333 213.333A42.667 42.667 0 0 1 384 170.667h405.333a42.667 42.667 0 0 1 14.123 2.41 85.333 85.333 0 0 1 42.667 128 41.76 41.76 0 0 1-3.883 4.95L669.483 496.064a42.667 42.667 0 1 1-63.147-57.387L772.395 256H384a42.667 42.667 0 0 1-42.667-42.667zm-92.202 39.936a42.667 42.667 0 0 0-55.894-64.49 85.333 85.333 0 0 0-15.36 112.298 41.76 41.76 0 0 0 3.883 4.95L384 528.49v154.176a42.667 42.667 0 0 0 17.067 34.133l170.666 128A42.667 42.667 0 0 0 640 810.667V597.333a42.667 42.667 0 1 0-85.333 0v128l-85.334-64V512a42.667 42.667 0 0 0-11.093-28.693L249.13 253.269z"/></svg>