<svg xmlns="http://www.w3.org/2000/svg" class="folder-off_svg__icon" viewBox="0 0 1024 1024"><path d="M213.333 213.333A42.667 42.667 0 0 0 170.667 256v469.333A42.667 42.667 0 0 0 213.333 768h597.334a42.667 42.667 0 0 0 42.666-42.667V384a42.667 42.667 0 0 0-42.666-42.667H512a42.667 42.667 0 0 1-30.165-12.501L366.336 213.333H213.333zm-90.517-47.85A128 128 0 0 1 213.333 128H384a42.667 42.667 0 0 1 30.165 12.501L529.664 256h281.003a128 128 0 0 1 128 128v341.333a128 128 0 0 1-128 128H213.333a128 128 0 0 1-128-128V256a128 128 0 0 1 37.483-90.517z"/></svg>