<svg xmlns="http://www.w3.org/2000/svg" class="folder-on_svg__icon" viewBox="0 0 1024 1024"><path d="M405.333 106.667H128q-35.328 0-60.33 25.002T42.666 192v682.667a42.667 42.667 0 0 0 84.053 10.325l98.56-394.325h617.387A42.667 42.667 0 0 0 885.333 448V320q0-35.328-25.002-60.33T800 234.666H531.968l-93.867-112.64a42.667 42.667 0 0 0-32.768-15.36zM128 528.085V192h257.365l93.867 112.64A42.667 42.667 0 0 0 512 320h288v85.333H192a42.667 42.667 0 0 0-41.387 32.299L128 528.085zM75.35 916.14a42.539 42.539 0 0 0 9.983 1.194h768a42.667 42.667 0 0 0 41.814-34.304l85.333-426.666a42.667 42.667 0 0 0-41.813-51.03H187.989a42.667 42.667 0 0 0-41.472 32.683L43.861 864.683a42.667 42.667 0 0 0 31.488 51.456zM139.52 832l82.133-341.333h664.96L818.347 832H139.52z"/></svg>