<svg xmlns="http://www.w3.org/2000/svg" fill="none" viewBox="0 0 48 48"><path fill="#000" fill-rule="evenodd" d="M30 8a2 2 0 0 1 2-2h8a2 2 0 0 1 2 2v8a2 2 0 1 1-4 0v-6h-6a2 2 0 0 1-2-2Z" clip-rule="evenodd"/><path fill="#000" fill-rule="evenodd" d="M41.414 6.586a2 2 0 0 1 0 2.828l-12 12a2 2 0 1 1-2.828-2.828l12-12a2 2 0 0 1 2.828 0ZM8 30a2 2 0 0 1 2 2v6h6a2 2 0 1 1 0 4H8a2 2 0 0 1-2-2v-8a2 2 0 0 1 2-2Z" clip-rule="evenodd"/><path fill="#000" fill-rule="evenodd" d="M21.414 26.586a2 2 0 0 1 0 2.828l-12 12a2 2 0 1 1-2.828-2.828l12-12a2 2 0 0 1 2.828 0ZM40 30a2 2 0 0 1 2 2v8a2 2 0 0 1-2 2h-8a2 2 0 1 1 0-4h6v-6a2 2 0 0 1 2-2Z" clip-rule="evenodd"/><path fill="#000" fill-rule="evenodd" d="M26.586 26.586a2 2 0 0 1 2.828 0l12 12a2 2 0 1 1-2.828 2.828l-12-12a2 2 0 0 1 0-2.828ZM6 8a2 2 0 0 1 2-2h8a2 2 0 1 1 0 4h-6v6a2 2 0 1 1-4 0V8Z" clip-rule="evenodd"/><path fill="#000" fill-rule="evenodd" d="M6.586 6.586a2 2 0 0 1 2.828 0l12 12a2 2 0 1 1-2.828 2.828l-12-12a2 2 0 0 1 0-2.828Z" clip-rule="evenodd"/></svg>