<svg xmlns="http://www.w3.org/2000/svg"
     viewBox="0 0 24 24"
     fill="currentColor"
     class="w-6 h-6 text-black">
  <path fill-rule="evenodd" clip-rule="evenodd"
        d="M12 0.297C5.372 0.297 0 5.669 0 12.297c0 5.28 3.438 9.75 8.205 11.325.6.111.82-.261.82-.582 0-.288-.011-1.05-.017-2.061-3.338.726-4.042-1.61-4.042-1.61-.546-1.386-1.333-1.756-1.333-1.756-1.089-.745.083-.73.083-.73 1.205.084 1.838 1.237 1.838 1.237 1.07 1.835 2.809 1.305 3.495.998.108-.775.419-1.305.762-1.605-2.665-.303-5.467-1.332-5.467-5.931 0-1.31.469-2.381 1.236-3.221-.123-.303-.535-1.523.117-3.176 0 0 1.008-.322 3.3 1.23a11.52 11.52 0 0 1 3.003-.403c1.02.005 2.048.138 3.003.403 2.289-1.552 3.294-1.23 3.294-1.23.654 1.653.242 2.873.12 3.176.77.84 1.236 1.911 1.236 3.221 0 4.61-2.807 5.625-5.479 5.921.43.37.823 1.102.823 2.222 0 1.606-.015 2.902-.015 3.293 0 .324.216.699.825.58C20.565 22.042 24 17.574 24 12.297 24 5.669 18.627.297 12 .297z"/>
</svg>
