<svg xmlns="http://www.w3.org/2000/svg" class="grid-dots_svg__icon" viewBox="0 0 1024 1024"><path d="M153.003 153.003a85.333 85.333 0 1 1 120.661 120.661 85.333 85.333 0 0 1-120.661-120.661zm298.666 0a85.333 85.333 0 1 1 120.662 120.661 85.333 85.333 0 0 1-120.662-120.661zm298.667 0a85.333 85.333 0 1 1 120.661 120.661 85.333 85.333 0 0 1-120.661-120.661zM153.003 451.669a85.333 85.333 0 1 1 120.661 120.662 85.333 85.333 0 0 1-120.661-120.662zm298.666 0a85.333 85.333 0 1 1 120.662 120.662 85.333 85.333 0 0 1-120.662-120.662zm298.667 0a85.333 85.333 0 1 1 120.661 120.662 85.333 85.333 0 0 1-120.661-120.662zM153.003 750.336a85.333 85.333 0 1 1 120.661 120.661 85.333 85.333 0 0 1-120.661-120.661zm298.666 0a85.333 85.333 0 1 1 120.662 120.661 85.333 85.333 0 0 1-120.662-120.661zm298.667 0a85.333 85.333 0 1 1 120.661 120.661 85.333 85.333 0 0 1-120.661-120.661z"/></svg>