<svg xmlns="http://www.w3.org/2000/svg" class="hand_svg__icon" data-spm-anchor-id="a313x.7781069.1998910419.i3" viewBox="0 0 1024 1024"><path d="M418.048 226.901c-5.525 0-10.795 2.134-14.699 5.974a20.16 20.16 0 0 0-6.08 14.4v305.45c0 22.507-18.602 40.747-41.557 40.747s-41.579-18.24-41.579-40.747v-305.45c0-27.008 10.966-52.907 30.443-72a104.981 104.981 0 0 1 73.472-29.824c27.563 0 53.973 10.73 73.472 29.824a100.8 100.8 0 0 1 30.421 72V512c0 22.485-18.602 40.747-41.557 40.747S438.827 534.464 438.827 512V247.253a20.16 20.16 0 0 0-6.08-14.378 20.992 20.992 0 0 0-14.72-5.974z"/><path d="M542.72 145.45a21.163 21.163 0 0 0-14.677 5.974 20.33 20.33 0 0 0-6.102 14.4v81.45c0 22.486-18.602 40.726-41.557 40.726s-41.557-18.24-41.557-40.747v-81.408c0-13.376 2.688-26.624 7.893-38.976a101.675 101.675 0 0 1 22.528-33.024 104.58 104.58 0 0 1 33.707-22.08 105.77 105.77 0 0 1 79.53 0 104.122 104.122 0 0 1 33.707 22.08 101.716 101.716 0 0 1 22.528 33.024 100.054 100.054 0 0 1 7.893 38.976V512c0 22.485-18.581 40.747-41.536 40.747S563.52 534.485 563.52 512V165.824a19.99 19.99 0 0 0-6.101-14.4 20.843 20.843 0 0 0-14.699-5.973z"/><path d="M667.413 226.901c-5.504 0-10.794 2.134-14.698 5.974a20.16 20.16 0 0 0-6.08 14.4c0 22.485-18.603 40.725-41.558 40.725s-41.557-18.24-41.557-40.747c0-26.986 10.944-52.885 30.421-71.978a105.003 105.003 0 0 1 73.472-29.824c27.563 0 53.974 10.73 73.472 29.824a100.8 100.8 0 0 1 30.422 72V512c0 22.485-18.603 40.747-41.558 40.747S688.213 534.464 688.213 512V247.253a20.16 20.16 0 0 0-6.08-14.378 20.992 20.992 0 0 0-14.698-5.974z"/><path d="M792.107 308.352c-5.526 0-10.816 2.155-14.72 5.973a20.16 20.16 0 0 0-6.08 14.4c0 22.486-18.603 40.747-41.558 40.747s-41.557-18.24-41.557-40.747c0-27.008 10.944-52.906 30.443-72a104.981 104.981 0 0 1 73.472-29.824c27.541 0 53.973 10.731 73.472 29.824A100.779 100.779 0 0 1 896 328.747v346.176a282.24 282.24 0 0 1-85.205 201.6A293.973 293.973 0 0 1 605.077 960h-83.136a43.14 43.14 0 0 1-5.269-.32 295.53 295.53 0 0 1-124.096-33.792 288.853 288.853 0 0 1-105.003-94.187l-.021-.021a2081.966 2081.966 0 0 1-8.256-12.395c-13.952-21.013-60.373-100.373-137.941-235.52a100.01 100.01 0 0 1-9.878-76.01 102.059 102.059 0 0 1 46.998-61.227 121.173 121.173 0 0 1 75.818-15.787 120.15 120.15 0 0 1 69.696 33.302l61.099 59.882c16.213 15.915 16.213 41.686 0 57.6a42.155 42.155 0 0 1-58.773 0l-61.078-59.861a36.65 36.65 0 0 0-44.01-5.29 20.437 20.437 0 0 0-9.408 12.266 20.01 20.01 0 0 0 1.962 15.19c78.55 136.831 123.158 212.949 135.19 231.04l.021.042 8.021 12.01A206.293 206.293 0 0 0 432 854.188a211.2 211.2 0 0 0 98.517 24.362h74.56a209.984 209.984 0 0 0 146.944-59.648 201.6 201.6 0 0 0 60.864-144V328.747a20.16 20.16 0 0 0-6.101-14.4 20.992 20.992 0 0 0-14.677-5.974z"/></svg>