<svg xmlns="http://www.w3.org/2000/svg" fill="none" viewBox="0 0 48 48"><path fill="#000" fill-rule="evenodd" d="M12 28a2 2 0 0 0-2 2v6a2 2 0 0 0 2 2h2a2 2 0 0 0 2-2v-6a2 2 0 0 0-2-2h-2Zm-4.243-2.243A6 6 0 0 1 12 24h2a6 6 0 0 1 6 6v6a6 6 0 0 1-6 6h-2a6 6 0 0 1-6-6v-6a6 6 0 0 1 1.757-4.243ZM34 28a2 2 0 0 0-2 2v6a2 2 0 0 0 2 2h2a2 2 0 0 0 2-2v-6a2 2 0 0 0-2-2h-2Zm-4.243-2.243A6 6 0 0 1 34 24h2a6 6 0 0 1 6 6v6a6 6 0 0 1-6 6h-2a6 6 0 0 1-6-6v-6a6 6 0 0 1 1.757-4.243Z" clip-rule="evenodd"/><path fill="#000" fill-rule="evenodd" d="M24 10a14 14 0 0 0-14 14v6a2 2 0 1 1-4 0v-6a18 18 0 1 1 36 0v6a2 2 0 1 1-4 0v-6a14 14 0 0 0-14-14Z" clip-rule="evenodd"/></svg>