<svg xmlns="http://www.w3.org/2000/svg" class="history_svg__icon" viewBox="0 0 1024 1024"><path d="M124.16 341.333h155.136a42.667 42.667 0 1 0 0-85.333H166.784V143.53a42.667 42.667 0 0 0-85.333 0v155.137a42.667 42.667 0 0 0 42.666 42.666zm149.845-233.941Q167.467 170.24 105.472 277.248a42.667 42.667 0 0 0 36.992 64.085h.725A42.667 42.667 0 0 0 179.413 320q50.688-87.595 137.942-139.093Q407.125 128 512 128q78.165 0 149.461 30.165 68.907 29.142 122.07 82.304 53.162 53.163 82.346 122.07Q896 433.835 896 512t-30.165 149.461q-29.142 68.907-82.304 122.07-53.163 53.162-122.07 82.346Q590.165 896 512 896t-149.461-30.165q-68.907-29.142-122.07-82.304-53.162-53.163-82.346-122.07Q128 590.165 128 512a42.667 42.667 0 1 0-85.333 0q0 95.445 36.906 182.699Q115.2 778.923 180.14 843.86q64.937 64.94 149.16 100.567 87.255 36.906 182.7 36.906t182.699-36.906Q778.923 908.8 843.86 843.86q64.94-64.937 100.567-149.16 36.906-87.255 36.906-182.7t-36.906-182.699Q908.8 245.077 843.86 180.14 778.923 115.2 694.7 79.573 607.445 42.667 512 42.667q-128.17 0-237.995 64.725zM662.784 723.2v.043a42.667 42.667 0 0 0 60.373-60.331L554.752 494.507V256a42.667 42.667 0 1 0-85.333 0v256.17a42.667 42.667 0 0 0 12.501 30.209l180.907 180.864z"/></svg>