<svg xmlns="http://www.w3.org/2000/svg" fill="none" viewBox="0 0 48 48"><path fill="#000" fill-rule="evenodd" d="M22.586 4.586a2 2 0 0 1 2.828 0l18 18A2 2 0 0 1 42 26h-4a2 2 0 0 1-.702-3.873L24 8.828 10.702 22.127A2 2 0 0 1 10 26H6a2 2 0 0 1-1.414-3.414l18-18Z" clip-rule="evenodd"/><path fill="#000" fill-rule="evenodd" d="M10 22a2 2 0 0 1 2 2v14a2 2 0 0 0 2 2h20a2 2 0 0 0 2-2V24a2 2 0 1 1 4 0v14a6 6 0 0 1-6 6H14a6 6 0 0 1-6-6V24a2 2 0 0 1 2-2Z" clip-rule="evenodd"/><path fill="#000" fill-rule="evenodd" d="M22 28a2 2 0 0 0-2 2v12a2 2 0 1 1-4 0V30a6 6 0 0 1 6-6h4a6 6 0 0 1 6 6v12a2 2 0 1 1-4 0V30a2 2 0 0 0-2-2h-4Z" clip-rule="evenodd"/></svg>