<svg xmlns="http://www.w3.org/2000/svg" fill="none" viewBox="0 0 48 48"><path fill="#000" fill-rule="evenodd" d="M28 4a2 2 0 0 1 2 2v8h8a2 2 0 1 1 0 4h-8a4 4 0 0 1-4-4V6a2 2 0 0 1 2-2Z" clip-rule="evenodd"/><path fill="#000" fill-rule="evenodd" d="M14 8a2 2 0 0 0-2 2v16a2 2 0 1 1-4 0V10a6 6 0 0 1 6-6h14a2 2 0 0 1 1.414.586l10 10A2 2 0 0 1 40 16v22a6 6 0 0 1-6 6H23a2 2 0 1 1 0-4h11a2 2 0 0 0 2-2V16.828L27.172 8H14Zm-3.414 25.414a2 2 0 1 1 2.828-2.828l6 6a2 2 0 0 1 0 2.828l-6 6a2 2 0 1 1-2.828-2.828L13.172 40H4a2 2 0 1 1 0-4h9.172l-2.586-2.586Z" clip-rule="evenodd"/></svg>