<svg xmlns="http://www.w3.org/2000/svg" fill="none" viewBox="0 0 48 48"><path fill="#000" fill-rule="evenodd" d="M28 4a2 2 0 0 1 2 2v8h8a2 2 0 1 1 0 4h-8a4 4 0 0 1-4-4V6a2 2 0 0 1 2-2Z" clip-rule="evenodd"/><path fill="#000" fill-rule="evenodd" d="M14 8a2 2 0 0 0-2 2v28a2 2 0 0 0 2 2h9a2 2 0 1 1 0 4h-9a6 6 0 0 1-6-6V10a6 6 0 0 1 6-6h14a2 2 0 0 1 1.414.586l10 10A2 2 0 0 1 40 16v10a2 2 0 1 1-4 0v-9.172L27.172 8H14Z" clip-rule="evenodd"/><path fill="#000" fill-rule="evenodd" d="M35.414 33.414a2 2 0 1 0-2.828-2.828l-6 6a2 2 0 0 0 0 2.828l6 6a2 2 0 1 0 2.828-2.828L32.828 40H42a2 2 0 1 0 0-4h-9.172l2.586-2.586ZM24 21a2 2 0 0 1 2-2h.02a2 2 0 1 1 0 4H26a2 2 0 0 1-2-2Zm-4 6.002a.419.419 0 0 1 .297.124l5.289 5.288a2 2 0 0 0 2.828-2.828l-5.287-5.287a4.425 4.425 0 0 0-4.82-.96 4.422 4.422 0 0 0-1.433.959l-8.202 8.374A2 2 0 1 0 11.5 35.5l8.202-8.374a.423.423 0 0 1 .298-.124Z" clip-rule="evenodd"/></svg>