<svg xmlns="http://www.w3.org/2000/svg" class="increase_svg__icon" viewBox="0 0 1024 1024"><path d="M512 870.4c-197.93 0-358.4-160.47-358.4-358.4S314.07 153.6 512 153.6 870.4 314.07 870.4 512 709.93 870.4 512 870.4zm0 89.6c247.424 0 448-200.576 448-448S759.424 64 512 64 64 264.576 64 512s200.576 448 448 448z"/><path d="M310.4 512c0-24.747 20.053-44.8 44.8-44.8h313.6a44.8 44.8 0 1 1 0 89.6H355.2a44.8 44.8 0 0 1-44.8-44.8z"/><path d="M512 310.4c24.747 0 44.8 20.053 44.8 44.8v313.6a44.8 44.8 0 1 1-89.6 0V355.2c0-24.747 20.053-44.8 44.8-44.8z"/></svg>