<svg xmlns="http://www.w3.org/2000/svg" fill="none" viewBox="0 0 48 48"><path fill="#000" fill-rule="evenodd" d="M10 28a2 2 0 0 0-2 2v8a2 2 0 0 0 2 2h28a2 2 0 0 0 2-2v-8a2 2 0 0 0-2-2H10Zm-4.243-2.243A6 6 0 0 1 10 24h28a6 6 0 0 1 6 6v8a6 6 0 0 1-6 6H10a6 6 0 0 1-6-6v-8a6 6 0 0 1 1.757-4.243Z" clip-rule="evenodd"/><path fill="#000" fill-rule="evenodd" d="M34 32a2 2 0 0 1 2 2v.02a2 2 0 1 1-4 0V34a2 2 0 0 1 2-2Zm-10 0a2 2 0 0 1 2 2v.02a2 2 0 1 1-4 0V34a2 2 0 0 1 2-2Zm-10 0a2 2 0 0 1 2 2v.02a2 2 0 1 1-4 0V34a2 2 0 0 1 2-2Zm10-12a2 2 0 0 1 2 2v4a2 2 0 1 1-4 0v-4a2 2 0 0 1 2-2Zm0-3.836a5.999 5.999 0 0 0-4.875 2.502 2 2 0 1 1-3.25-2.332 10 10 0 0 1 16.25 0 2 2 0 1 1-3.25 2.332A6 6 0 0 0 24 16.164Z" clip-rule="evenodd"/><path fill="#000" fill-rule="evenodd" d="M24 8.327a14 14 0 0 0-11.375 5.839 2 2 0 1 1-3.25-2.332 18 18 0 0 1 29.25 0 2 2 0 1 1-3.25 2.332A14 14 0 0 0 24 8.327Z" clip-rule="evenodd"/></svg>