<svg xmlns="http://www.w3.org/2000/svg" fill="none" viewBox="0 0 48 48"><g clip-path="url(#a)"><mask id="b" width="48" height="48" x="0" y="0" maskUnits="userSpaceOnUse" style="mask-type:luminance"><path fill="#fff" d="M48 0H0v48h48V0Z"/></mask><g mask="url(#b)"><path fill="#000" fill-rule="evenodd" d="M4 8v4c0 1.105.39 2.048 1.172 2.83A3.854 3.854 0 0 0 8 16v16c-1.105 0-2.047.39-2.828 1.17A3.855 3.855 0 0 0 4 36v4a3.85 3.85 0 0 0 1.172 2.828A3.854 3.854 0 0 0 8 44h4c1.105 0 2.047-.39 2.828-1.172A3.854 3.854 0 0 0 16 40.002h16c0 1.104.39 2.047 1.171 2.828A3.854 3.854 0 0 0 36 44h4a3.85 3.85 0 0 0 2.828-1.172A3.855 3.855 0 0 0 44 40v-4c0-1.105-.39-2.048-1.172-2.83A3.854 3.854 0 0 0 40 32V16c1.105 0 2.047-.39 2.828-1.17A3.854 3.854 0 0 0 44 12V8a3.85 3.85 0 0 0-1.172-2.828A3.854 3.854 0 0 0 40 4h-4c-1.105 0-2.047.39-2.829 1.172A3.854 3.854 0 0 0 32 7.997H16a3.854 3.854 0 0 0-1.172-2.825A3.854 3.854 0 0 0 12 4H8c-1.105 0-2.047.39-2.828 1.172A3.854 3.854 0 0 0 4 8Zm8 1.979V12h-1.924a1.92 1.92 0 0 0-.152 0H8V8h4v1.978ZM12 16a3.85 3.85 0 0 0 2.828-1.172A3.854 3.854 0 0 0 16 12.001v-.003h16V12c0 1.104.39 2.047 1.171 2.828A3.854 3.854 0 0 0 36 16.001v15.998c-1.105 0-2.047.39-2.829 1.172A3.855 3.855 0 0 0 32 36H16c0-1.104-.39-2.048-1.172-2.83A3.854 3.854 0 0 0 12 32V16ZM9.924 36a2.401 2.401 0 0 0 .152 0H12v4H8v-4h1.924ZM36 38.02V36h1.924a2.415 2.415 0 0 0 .152 0H40v4h-4v-1.98ZM38.076 12a1.924 1.924 0 0 0-.152 0H36V8h4v4h-1.924Z" clip-rule="evenodd"/></g></g><defs><clipPath id="a"><path fill="#fff" d="M0 0h48v48H0z"/></clipPath></defs></svg>