<svg xmlns="http://www.w3.org/2000/svg" fill="none" viewBox="0 0 48 48"><path fill="#000" fill-rule="evenodd" d="M8.727 14c-.506 0-.992.21-1.35.586A2.05 2.05 0 0 0 6.818 16v16c0 .53.201 1.04.56 1.414.357.375.843.586 1.35.586h30.545c.506 0 .992-.21 1.35-.586A2.05 2.05 0 0 0 41.182 32V16c0-.53-.201-1.04-.56-1.414a1.866 1.866 0 0 0-1.35-.586H8.728Zm-4.05-2.243A5.598 5.598 0 0 1 8.727 10h30.546c1.519 0 2.975.632 4.05 1.757A6.148 6.148 0 0 1 45 16v16a6.148 6.148 0 0 1-1.678 4.243A5.598 5.598 0 0 1 39.273 38H8.728a5.598 5.598 0 0 1-4.05-1.757A6.148 6.148 0 0 1 3 32V16a6.15 6.15 0 0 1 1.677-4.243Z" clip-rule="evenodd"/><path fill="#000" fill-rule="evenodd" d="M12 18a2 2 0 0 1 2 2v.02a2 2 0 1 1-4 0V20a2 2 0 0 1 2-2Zm8 0a2 2 0 0 1 2 2v.02a2 2 0 1 1-4 0V20a2 2 0 0 1 2-2Zm8 0a2 2 0 0 1 2 2v.02a2 2 0 1 1-4 0V20a2 2 0 0 1 2-2Zm8 0a2 2 0 0 1 2 2v.02a2 2 0 1 1-4 0V20a2 2 0 0 1 2-2Zm-24 8a2 2 0 0 1 2 2v.02a2 2 0 1 1-4 0V28a2 2 0 0 1 2-2Zm24 0a2 2 0 0 1 2 2v.02a2 2 0 1 1-4 0V28a2 2 0 0 1 2-2Zm-18 1.995A2 2 0 0 1 20.005 26l8 .02a2 2 0 1 1-.01 4l-8-.02A2 2 0 0 1 18 27.995Z" clip-rule="evenodd"/></svg>