<svg xmlns="http://www.w3.org/2000/svg" fill="none" viewBox="0 0 48 48"><path fill="#000" fill-rule="evenodd" d="M38 40V8a2 2 0 1 1 4 0v32a2 2 0 1 1-4 0ZM6 40V8a2 2 0 1 1 4 0v32a2 2 0 1 1-4 0Zm16-13v-3a2 2 0 1 1 4 0v3a2 2 0 1 1-4 0ZM20 8a2 2 0 0 1 2 2v12a2 2 0 1 1-4 0V10a2 2 0 0 1 2-2Zm8 0a2 2 0 0 1 2 2v12a2 2 0 1 1-4 0V10a2 2 0 0 1 2-2Z" clip-rule="evenodd"/><path fill="#000" fill-rule="evenodd" d="M7 16a2 2 0 0 1 2-2h9a2 2 0 1 1 0 4H9a2 2 0 0 1-2-2ZM4 40a2 2 0 0 1 2-2h36a2 2 0 1 1 0 4H6a2 2 0 0 1-2-2Zm24-24a2 2 0 0 1 2-2h9a2 2 0 1 1 0 4h-9a2 2 0 0 1-2-2Zm-10 6a2 2 0 0 1 2-2h8a2 2 0 1 1 0 4h-8a2 2 0 0 1-2-2Z" clip-rule="evenodd"/><path fill="#000" fill-rule="evenodd" d="M20 24a2 2 0 0 1 2-2h4a2 2 0 1 1 0 4h-4a2 2 0 0 1-2-2Zm-6 14a2 2 0 0 1 2-2h16a2 2 0 1 1 0 4H16a2 2 0 0 1-2-2Zm6-4a2 2 0 0 1 2-2h4a2 2 0 1 1 0 4h-4a2 2 0 0 1-2-2Zm-2-24a2 2 0 0 1 2-2h8a2 2 0 1 1 0 4h-8a2 2 0 0 1-2-2Z" clip-rule="evenodd"/></svg>