<svg xmlns="http://www.w3.org/2000/svg" class="layout-vertical_svg__icon" viewBox="0 0 1024 1024"><path d="M149.333 834.368c0-22.25 18.048-40.299 40.299-40.299h644.715a40.299 40.299 0 0 1 0 80.598H189.653a40.299 40.299 0 0 1-40.32-40.299zm0-644.736c0-22.25 18.048-40.299 40.299-40.299h644.715a40.299 40.299 0 0 1 0 80.598H189.653a40.299 40.299 0 0 1-40.32-40.32zm161.195 362.667a40.299 40.299 0 0 0 40.277 40.298h322.368a40.299 40.299 0 0 0 40.32-40.32v-80.576a40.299 40.299 0 0 0-40.32-40.298H350.827a40.299 40.299 0 0 0-40.32 40.32v80.576zm-45.184 85.482a120.896 120.896 0 0 1-35.413-85.482V471.68a120.896 120.896 0 0 1 120.874-120.896h322.368A120.896 120.896 0 0 1 794.07 471.68v80.597a120.896 120.896 0 0 1-120.896 120.875H350.827a120.896 120.896 0 0 1-85.504-35.413z"/></svg>