<svg xmlns="http://www.w3.org/2000/svg" class="layout-bottom_svg__icon" viewBox="0 0 1024 1024"><path d="M128 853.333a42.667 42.667 0 0 1 42.667-42.666h682.666a42.667 42.667 0 1 1 0 85.333H170.667A42.667 42.667 0 0 1 128 853.333zm298.667-256A42.667 42.667 0 0 0 469.333 640h85.334a42.667 42.667 0 0 0 42.666-42.667V256a42.667 42.667 0 0 0-42.666-42.667h-85.334A42.667 42.667 0 0 0 426.667 256v341.333zm-47.851 90.518a128 128 0 0 1-37.483-90.518V256a128 128 0 0 1 128-128h85.334a128 128 0 0 1 128 128v341.333a128 128 0 0 1-128 128h-85.334a128 128 0 0 1-90.517-37.482z" data-spm-anchor-id="a313x.7781069.1998910419.i4"/></svg>