<svg xmlns="http://www.w3.org/2000/svg" class="layout-left_svg__icon" viewBox="0 0 1024 1024"><path d="M170.667 128a42.667 42.667 0 0 1 42.666 42.667v682.666a42.667 42.667 0 1 1-85.333 0V170.667A42.667 42.667 0 0 1 170.667 128zm256 298.667A42.667 42.667 0 0 0 384 469.333v85.334a42.667 42.667 0 0 0 42.667 42.666H768a42.667 42.667 0 0 0 42.667-42.666v-85.334A42.667 42.667 0 0 0 768 426.667H426.667zm-90.518-47.851a128 128 0 0 1 90.518-37.483H768a128 128 0 0 1 128 128v85.334a128 128 0 0 1-128 128H426.667a128 128 0 0 1-128-128v-85.334a128 128 0 0 1 37.482-90.517z"/></svg>