<svg xmlns="http://www.w3.org/2000/svg" class="layout-horizontal_svg__icon" viewBox="0 0 1024 1024"><path d="M189.632 149.333c22.25 0 40.299 18.048 40.299 40.299v644.715a40.299 40.299 0 0 1-80.598 0V189.653c0-22.272 18.048-40.32 40.299-40.32zm644.736 0c22.25 0 40.299 18.048 40.299 40.299v644.715a40.299 40.299 0 0 1-80.598 0V189.653c0-22.25 18.048-40.298 40.32-40.298zM471.701 310.528a40.299 40.299 0 0 0-40.298 40.277v322.368a40.299 40.299 0 0 0 40.32 40.32h80.576a40.299 40.299 0 0 0 40.298-40.32V350.827a40.299 40.299 0 0 0-40.32-40.32h-80.576zm-85.482-45.184a120.896 120.896 0 0 1 85.482-35.413H552.3a120.896 120.896 0 0 1 120.896 120.874v322.368A120.896 120.896 0 0 1 552.299 794.07H471.68a120.896 120.896 0 0 1-120.875-120.896V350.827c0-32.086 12.715-62.827 35.414-85.504z"/></svg>