<svg xmlns="http://www.w3.org/2000/svg" class="layout-center_svg__icon" data-spm-anchor-id="a313x.7781069.1998910419.i7" viewBox="0 0 1024 1024"><path d="M512 106.667c24.875 0 45.035 20.16 45.035 45.034v225.195a45.035 45.035 0 0 1-90.07 0V151.68c0-24.875 20.16-45.035 45.014-45.035zm0 495.402c24.875 0 45.035 20.16 45.035 45.035V872.32a45.035 45.035 0 0 1-90.07 0V647.104c0-24.875 20.16-45.013 45.014-45.013z"/><path d="M331.861 421.93a45.035 45.035 0 0 0-45.056 45.014v90.09a45.035 45.035 0 0 0 45.035 45.035h360.32a45.035 45.035 0 0 0 45.013-45.013v-90.09a45.035 45.035 0 0 0-45.013-45.035H331.84zm-95.552-50.495a135.104 135.104 0 0 1 95.552-39.595H692.14a135.104 135.104 0 0 1 135.125 135.125v90.07A135.104 135.104 0 0 1 692.14 692.139h-360.3a135.104 135.104 0 0 1-135.104-135.104v-90.048a135.16 135.16 0 0 1 39.573-95.552z"/></svg>