<svg xmlns="http://www.w3.org/2000/svg" class="layout-top_svg__icon" data-spm-anchor-id="a313x.7781069.1998910419.i5" viewBox="0 0 1024 1024"><path d="M896 170.667a42.667 42.667 0 0 1-42.667 42.666H170.667a42.667 42.667 0 1 1 0-85.333h682.666A42.667 42.667 0 0 1 896 170.667zm-298.667 256A42.667 42.667 0 0 0 554.667 384h-85.334a42.667 42.667 0 0 0-42.666 42.667V768a42.667 42.667 0 0 0 42.666 42.667h85.334A42.667 42.667 0 0 0 597.333 768V426.667zm47.851-90.518a128 128 0 0 1 37.483 90.518V768a128 128 0 0 1-128 128h-85.334a128 128 0 0 1-128-128V426.667a128 128 0 0 1 128-128h85.334a128 128 0 0 1 90.517 37.482z"/></svg>