<svg xmlns="http://www.w3.org/2000/svg" class="layout-middle_svg__icon" data-spm-anchor-id="a313x.7781069.1998910419.i7" viewBox="0 0 1024 1024"><path d="M917.333 512a45.035 45.035 0 0 1-45.034 45.035H647.104a45.035 45.035 0 1 1 0-90.07H872.32c24.875 0 45.035 20.16 45.035 45.035zm-495.402 0a45.035 45.035 0 0 1-45.035 45.035H151.68a45.035 45.035 0 1 1 0-90.07h225.195c24.874 0 45.013 20.16 45.013 45.035z"/><path d="M602.07 331.861a45.035 45.035 0 0 0-45.014-45.034h-90.09a45.035 45.035 0 0 0-45.035 45.013v360.32a45.013 45.013 0 0 0 45.013 45.013h90.09a45.035 45.035 0 0 0 45.035-45.013V331.84zm50.495-95.552a135.104 135.104 0 0 1 39.574 95.552V692.16a135.104 135.104 0 0 1-135.104 135.104h-90.048a135.125 135.125 0 0 1-135.104-135.125V331.86a135.104 135.104 0 0 1 135.104-135.125h90.069a135.16 135.16 0 0 1 95.552 39.573z"/></svg>