<svg xmlns="http://www.w3.org/2000/svg" class="layout-right_svg__icon" data-spm-anchor-id="a313x.7781069.1998910419.i1" viewBox="0 0 1024 1024"><path d="M853.333 896a42.667 42.667 0 0 1-42.666-42.667V170.667a42.667 42.667 0 1 1 85.333 0v682.666A42.667 42.667 0 0 1 853.333 896zm-256-298.667A42.667 42.667 0 0 0 640 554.667v-85.334a42.667 42.667 0 0 0-42.667-42.666H256a42.667 42.667 0 0 0-42.667 42.666v85.334A42.667 42.667 0 0 0 256 597.333h341.333zm90.518 47.851a128 128 0 0 1-90.518 37.483H256a128 128 0 0 1-128-128v-85.334a128 128 0 0 1 128-128h341.333a128 128 0 0 1 128 128v85.334a128 128 0 0 1-37.482 90.517z"/></svg>