<svg xmlns="http://www.w3.org/2000/svg" class="list-details_svg__icon" viewBox="0 0 1024 1024"><path d="M512 213.333a42.667 42.667 0 0 1 42.667-42.666H896A42.667 42.667 0 1 1 896 256H554.667A42.667 42.667 0 0 1 512 213.333zM512 384a42.667 42.667 0 0 1 42.667-42.667H768a42.667 42.667 0 1 1 0 85.334H554.667A42.667 42.667 0 0 1 512 384zm0 256a42.667 42.667 0 0 1 42.667-42.667H896a42.667 42.667 0 1 1 0 85.334H554.667A42.667 42.667 0 0 1 512 640zm0 170.667A42.667 42.667 0 0 1 554.667 768H768a42.667 42.667 0 1 1 0 85.333H554.667A42.667 42.667 0 0 1 512 810.667zM110.336 153.003A85.333 85.333 0 0 1 170.666 128h170.667a85.333 85.333 0 0 1 85.334 85.333V384a85.333 85.333 0 0 1-85.334 85.333H170.667A85.333 85.333 0 0 1 85.333 384V213.333a85.333 85.333 0 0 1 25.003-60.33zm230.997 60.33H170.667V384h170.666V213.333zM110.315 579.67a85.333 85.333 0 0 1 60.352-25.002h170.666A85.333 85.333 0 0 1 426.667 640v170.667A85.333 85.333 0 0 1 341.333 896H170.667a85.333 85.333 0 0 1-85.334-85.333V640a85.333 85.333 0 0 1 24.982-60.33zM341.333 640H170.667v170.667h170.666V640z"/></svg>