<svg xmlns="http://www.w3.org/2000/svg" class="message_svg__icon" viewBox="0 0 1024 1024"><path d="M297.75 280c134.762-95.573 329.215-87.424 453.013 18.133zm453.013 18.133c121.77 103.915 137.109 269.014 38.677 388.48-100.352 121.75-289.813 160.598-442.283 86.571a42.667 42.667 0 0 0-27.52-3.35l-127.573 27.158 31.872-95.659a42.667 42.667 0 0 0-5.12-37.397c-85.29-126.123-53.91-289.664 78.933-383.936m-49.365-69.59C86.379 325.377 38.485 529.28 136.576 693.59L87.509 840.746a42.667 42.667 0 0 0 49.366 55.232l186.602-39.702c183.04 81.43 407.744 35.136 531.819-115.413 129.067-156.587 106.816-374.57-49.152-507.627-153.963-131.328-391.616-140.672-557.76-22.826z"/></svg>