<svg xmlns="http://www.w3.org/2000/svg" class="message-filling_svg__icon" viewBox="0 0 1024 1024"><path d="M0 512C0 230.4 230.4 0 512 0s512 230.4 512 512-230.4 512-512 512S0 793.6 0 512zm288-192c-38.4 0-64 25.6-64 64v256c0 38.4 25.6 64 64 64h147.2c6.4 0 19.2 6.4 25.6 6.4l38.4 38.4c6.4 6.4 19.2 6.4 25.6 0l38.4-38.4c6.4 0 19.2-6.4 25.6-6.4H736c38.4 0 64-25.6 64-64V384c0-38.4-25.6-64-64-64H288zm96 224c19.2 0 32-12.8 32-32s-12.8-32-32-32-32 12.8-32 32 12.8 32 32 32zm128 0c19.2 0 32-12.8 32-32s-12.8-32-32-32-32 12.8-32 32 12.8 32 32 32zm128 0c19.2 0 32-12.8 32-32s-12.8-32-32-32-32 12.8-32 32 12.8 32 32 32z"/></svg>