<svg xmlns="http://www.w3.org/2000/svg" fill="none" viewBox="0 0 48 48"><path fill="#000" fill-rule="evenodd" d="M4.586 4.586a2 2 0 0 1 2.828 0l36 36a2 2 0 1 1-2.828 2.828l-36-36a2 2 0 0 1 0-2.828Z" clip-rule="evenodd"/><path fill="#000" fill-rule="evenodd" d="M24 8a4 4 0 0 0-4 4 2 2 0 1 1-4 0 8 8 0 0 1 16 0v8a8 8 0 0 1-.347 2.33 2 2 0 1 1-3.826-1.164A4 4 0 0 0 28 20v-8a4 4 0 0 0-4-4Zm-6 8.004a2 2 0 0 1 2 2v2a4.002 4.002 0 0 0 5.16 3.83 2 2 0 0 1 1.16 3.828A8.002 8.002 0 0 1 16 20.004v-2a2 2 0 0 1 2-2Z" clip-rule="evenodd"/><path fill="#000" fill-rule="evenodd" d="M10 18a2 2 0 0 1 2 2 12 12 0 0 0 18.593 10.03 2 2 0 0 1 2.198 3.342A16 16 0 0 1 8 20a2 2 0 0 1 2-2Zm27.992 0a2 2 0 0 1 2.004 1.996c.006 3.13-.91 6.193-2.635 8.806a2 2 0 0 1-3.338-2.204 11.934 11.934 0 0 0 1.973-6.594A2 2 0 0 1 37.992 18ZM14 42a2 2 0 0 1 2-2h16a2 2 0 1 1 0 4H16a2 2 0 0 1-2-2Z" clip-rule="evenodd"/><path fill="#000" fill-rule="evenodd" d="M24 32a2 2 0 0 1 2 2v8a2 2 0 1 1-4 0v-8a2 2 0 0 1 2-2Z" clip-rule="evenodd"/></svg>