<svg xmlns="http://www.w3.org/2000/svg" fill="none" viewBox="0 0 48 48"><path fill="#000" fill-rule="evenodd" d="M24 8a4 4 0 0 0-4 4v8a4 4 0 1 0 8 0v-8a4 4 0 0 0-4-4Zm-5.657-1.657A8 8 0 0 1 32 12v8a8 8 0 0 1-16 0v-8a8 8 0 0 1 2.343-5.657Z" clip-rule="evenodd"/><path fill="#000" fill-rule="evenodd" d="M10 18a2 2 0 0 1 2 2 12 12 0 0 0 24 0 2 2 0 1 1 4 0 16 16 0 1 1-32 0 2 2 0 0 1 2-2Zm4 24a2 2 0 0 1 2-2h16a2 2 0 1 1 0 4H16a2 2 0 0 1-2-2Z" clip-rule="evenodd"/><path fill="#000" fill-rule="evenodd" d="M24 32a2 2 0 0 1 2 2v8a2 2 0 1 1-4 0v-8a2 2 0 0 1 2-2Z" clip-rule="evenodd"/></svg>