<svg xmlns="http://www.w3.org/2000/svg" fill="none" viewBox="0 0 48 48"><path fill="#000" fill-rule="evenodd" d="M26.336 4.89a2 2 0 0 1 2.773-.554l12 8A2 2 0 0 1 42 14v14a2 2 0 0 1-4 0V15.07L26.89 7.664a2 2 0 0 1-.554-2.773Zm-16 28a2 2 0 0 1 2.773-.554L24 39.596l10.89-7.26a2 2 0 0 1 2.22 3.328l-12 8a2 2 0 0 1-2.22 0l-12-8a2 2 0 0 1-.554-2.773Zm11.328-28a2 2 0 0 1-.555 2.774L10 15.07V28a2 2 0 1 1-4 0V14a2 2 0 0 1 .89-1.664l12-8a2 2 0 0 1 2.774.555Z" clip-rule="evenodd"/><path fill="#000" fill-rule="evenodd" d="M6.304 12.94a2 2 0 0 1 2.756-.636l16 10A2 2 0 0 1 26 24v18a2 2 0 1 1-4 0V25.108L6.94 15.696a2 2 0 0 1-.636-2.756Z" clip-rule="evenodd"/><path fill="#000" fill-rule="evenodd" d="M41.696 12.94a2 2 0 0 1-.636 2.756l-16 10a2 2 0 1 1-2.12-3.392l16-10a2 2 0 0 1 2.756.636Z" clip-rule="evenodd"/></svg>