<svg xmlns="http://www.w3.org/2000/svg" fill="none" viewBox="0 0 48 48"><g clip-path="url(#a)"><mask id="b" width="48" height="48" x="0" y="0" maskUnits="userSpaceOnUse" style="mask-type:luminance"><path fill="#fff" d="M48 0H0v48h48V0Z"/></mask><g fill="#242424" fill-rule="evenodd" clip-rule="evenodd" mask="url(#b)"><path d="M34.586 28.586 39.172 24l-4.586-4.586a2 2 0 1 1 2.828-2.828l6 6a2 2 0 0 1 0 2.828l-5.999 6a2.001 2.001 0 1 1-2.83-2.828Z"/><path d="M30 26h12a2 2 0 1 0 0-4H30a2 2 0 1 0 0 4Zm-19.415 5.414-6-6a2 2 0 0 1 0-2.828l6-6a2 2 0 1 1 2.83 2.828L8.827 24l4.586 4.585a2 2 0 1 1-2.829 2.829Z"/><path d="M6 26h12a2 2 0 1 0 0-4H6a2 2 0 1 0 0 4Zm25.413 11.415-5.999 6a2 2 0 0 1-2.828 0l-6-6a2 2 0 0 1 2.828-2.83L24 39.173l4.585-4.585a2.001 2.001 0 1 1 2.828 2.828Z"/><path d="M22 30v12a2 2 0 1 0 4 0V30a2 2 0 1 0-4 0Zm-5.414-19.414 6-6a2 2 0 0 1 2.828 0l6 6a2 2 0 1 1-2.828 2.828L24 8.828l-4.586 4.586a2 2 0 1 1-2.828-2.828Z"/><path d="M22 6v12a2 2 0 1 0 4 0V6a2 2 0 1 0-4 0Z"/></g></g><defs><clipPath id="a"><path fill="#fff" d="M0 0h48v48H0z"/></clipPath></defs></svg>