<svg xmlns="http://www.w3.org/2000/svg" fill="none" viewBox="0 0 48 48"><path fill="#000" fill-rule="evenodd" d="M21.988 6.98A10.346 10.346 0 0 1 29.263 4c2.729 0 5.346 1.072 7.275 2.98a10.121 10.121 0 0 1 3.013 7.197c0 2.699-1.084 5.287-3.013 7.196L23.782 33.99a6.16 6.16 0 0 1-4.33 1.774 6.16 6.16 0 0 1-4.332-1.774 6.026 6.026 0 0 1-1.794-4.284c0-1.607.645-3.148 1.794-4.285l12.755-12.617a1.978 1.978 0 0 1 2.776 0 1.926 1.926 0 0 1 0 2.745L17.895 28.166a2.165 2.165 0 0 0-.644 1.54c0 .577.231 1.13.644 1.539a2.215 2.215 0 0 0 3.112 0l12.756-12.618a6.26 6.26 0 0 0 1.864-4.45c0-1.67-.67-3.27-1.864-4.451a6.399 6.399 0 0 0-4.5-1.844 6.4 6.4 0 0 0-4.5 1.844L12.008 22.343a10.355 10.355 0 0 0-3.083 7.363c0 2.761 1.109 5.41 3.083 7.362a10.585 10.585 0 0 0 7.443 3.05c2.792 0 5.47-1.097 7.443-3.05L39.65 24.451a1.977 1.977 0 0 1 2.775 0 1.926 1.926 0 0 1 0 2.745L29.67 39.813A14.532 14.532 0 0 1 19.45 44a14.532 14.532 0 0 1-10.218-4.187A14.216 14.216 0 0 1 5 29.706c0-3.791 1.523-7.427 4.233-10.108L21.988 6.981Z" clip-rule="evenodd"/></svg>