<svg xmlns="http://www.w3.org/2000/svg" fill="none" viewBox="0 0 48 48"><g clip-path="url(#a)"><mask id="b" width="48" height="48" x="0" y="0" maskUnits="userSpaceOnUse" style="mask-type:luminance"><path fill="#fff" d="M48 0H0v48h48V0Z"/></mask><g fill="#242424" fill-rule="evenodd" clip-rule="evenodd" mask="url(#b)"><path d="M6 32a2 2 0 0 1 .586-1.414l21-21C29.08 8.09 30.885 7.342 33 7.342c2.115 0 3.92.747 5.416 2.242 1.495 1.496 2.243 3.301 2.242 5.416 0 2.115-.748 3.92-2.244 5.414l-21 21A2 2 0 0 1 16 42H8a2 2 0 0 1-2-2v-8Zm4 6h5.172l20.414-20.414a3.524 3.524 0 0 0 1.072-2.587c0-1.01-.357-1.872-1.07-2.586A3.523 3.523 0 0 0 33 11.342a3.52 3.52 0 0 0-2.586 1.072L10 32.828V38Z"/><path d="m33.586 22.414-8-8a2 2 0 1 1 2.828-2.828l8 8a2 2 0 1 1-2.828 2.828Z"/></g></g><defs><clipPath id="a"><path fill="#fff" d="M0 0h48v48H0z"/></clipPath></defs></svg>