<svg xmlns="http://www.w3.org/2000/svg" class="icon" style="width:1em;height:1em;vertical-align:middle;fill:currentColor;overflow:hidden" viewBox="0 0 1024 1024"><path fill="#000" d="M361.152 147.819a213.333 213.333 0 1 1 301.675 301.674A213.333 213.333 0 0 1 361.173 147.84zM512 170.667a128 128 0 1 0 0 256 128 128 0 0 0 0-256zm-85.333 512a128 128 0 0 0-128 128V896a42.667 42.667 0 1 1-85.334 0v-85.333a213.333 213.333 0 0 1 213.334-213.334h170.666a213.333 213.333 0 0 1 213.334 213.334V896a42.667 42.667 0 1 1-85.334 0v-85.333a128 128 0 0 0-128-128H426.667z"/></svg>