<svg xmlns="http://www.w3.org/2000/svg" class="photo_svg__icon" viewBox="0 0 1024 1024"><path d="M588.8 358.4a38.4 38.4 0 0 1 38.4-38.4h.384a38.4 38.4 0 0 1 0 76.8h-.384a38.4 38.4 0 0 1-38.4-38.4z"/><path d="M281.6 204.8a76.8 76.8 0 0 0-76.8 76.8v460.8a76.8 76.8 0 0 0 76.8 76.8h460.8a76.8 76.8 0 0 0 76.8-76.8V281.6a76.8 76.8 0 0 0-76.8-76.8H281.6zm-108.608-31.808A153.6 153.6 0 0 1 281.6 128h460.8A153.6 153.6 0 0 1 896 281.6v460.8A153.6 153.6 0 0 1 742.4 896H281.6A153.6 153.6 0 0 1 128 742.4V281.6a153.6 153.6 0 0 1 44.992-108.608z"/><path d="M385.28 501.035 193.557 692.757a38.4 38.4 0 0 1-54.314-54.314l192-192 .533-.512c23.573-22.699 52.63-36.438 84.224-36.438 31.573 0 60.65 13.739 84.224 36.438l.533.512 192 192a38.4 38.4 0 0 1-54.314 54.314L446.74 501.035c-11.946-11.414-22.613-14.763-30.741-14.763s-18.773 3.35-30.72 14.763z"/><path d="m654.08 577.835-38.123 38.122a38.4 38.4 0 1 1-54.314-54.314l38.4-38.4.533-.512c23.573-22.699 52.63-36.459 84.224-36.459 31.573 0 60.65 13.76 84.224 36.459l.533.512 115.2 115.2a38.4 38.4 0 0 1-54.314 54.314L715.54 577.835c-11.946-11.414-22.613-14.742-30.741-14.742s-18.773 3.328-30.72 14.742z"/></svg>