<svg xmlns="http://www.w3.org/2000/svg" fill="none" viewBox="0 0 48 48"><path fill="#000" fill-rule="evenodd" d="M4.586 4.586a2 2 0 0 1 2.828 0l36 36a2 2 0 1 1-2.828 2.828l-36-36a2 2 0 0 1 0-2.828Z" clip-rule="evenodd"/><path fill="#000" fill-rule="evenodd" d="M31.414 7.586a2 2 0 0 1 0 2.828l-6.498 6.498a2 2 0 1 1-2.828-2.828l6.498-6.498a2 2 0 0 1 2.828 0Zm9 9a2 2 0 0 1 0 2.828l-6.5 6.502a2 2 0 1 1-2.828-2.828l6.5-6.502a2 2 0 0 1 2.828 0Zm-20.18 1.076a2 2 0 0 1-1.17 2.575l-3.956 1.484L13.828 23 25 34.172l1.28-1.28 1.487-3.966a2 2 0 0 1 3.746 1.404l-1.64 4.372a2 2 0 0 1-.459.712l-3 3a2 2 0 0 1-2.828 0l-14-14a2 2 0 0 1 0-2.828l3-3c.202-.202.444-.358.712-.459l4.362-1.636a2 2 0 0 1 2.575 1.17Z" clip-rule="evenodd"/><path fill="#000" fill-rule="evenodd" d="M19.414 28.586a2 2 0 0 1 0 2.828l-9 9a2 2 0 1 1-2.828-2.828l9-9a2 2 0 0 1 2.828 0Zm8.172-22a2 2 0 0 1 2.828 0l11 11a2 2 0 1 1-2.828 2.828l-11-11a2 2 0 0 1 0-2.828Z" clip-rule="evenodd"/></svg>