<svg xmlns="http://www.w3.org/2000/svg" fill="none" viewBox="0 0 48 48"><path fill="#000" fill-rule="evenodd" d="M18 6a2 2 0 0 1 2 2v12a2 2 0 0 1-.211.894L16 28.472V30h16v-1.528l-3.789-7.578A2 2 0 0 1 28 20V8a2 2 0 1 1 4 0v11.528l3.789 7.578A2 2 0 0 1 36 28v4a2 2 0 0 1-2 2H14a2 2 0 0 1-2-2v-4a2 2 0 0 1 .211-.894L16 19.528V8a2 2 0 0 1 2-2Z" clip-rule="evenodd"/><path fill="#000" fill-rule="evenodd" d="M24 30a2 2 0 0 1 2 2v10a2 2 0 1 1-4 0V32a2 2 0 0 1 2-2ZM14 8a2 2 0 0 1 2-2h16a2 2 0 1 1 0 4H16a2 2 0 0 1-2-2Z" clip-rule="evenodd"/></svg>