<svg xmlns="http://www.w3.org/2000/svg" class="pointer_svg__icon" data-spm-anchor-id="a313x.7781069.1998910419.i4" viewBox="0 0 1024 1024"><path d="M456.853 938.667c1.43 0 2.859 0 4.203-.107 55.53-1.728 102.741-36.736 120.192-89.11l75.499-162.453a38.336 38.336 0 0 1 24.213-24.106l168-76.587a129.365 129.365 0 0 0 89.6-118.613c2.155-54.827-29.355-103.936-80.17-125.163L267.35 95.787c-49.686-20.736-104.385-10.219-142.678 27.349-38.4 37.675-49.685 91.861-29.44 141.483l240.277 592.469c20.224 49.92 67.542 81.557 121.344 81.557zm36.438-118.315c-7.808 23.381-28.864 25.813-35.115 26.027-6.464-.214-27.413-.918-36.65-23.766L181.14 230.144c-8.832-21.845 4.31-37.163 8.619-41.344 4.203-4.181 19.797-17.152 41.664-7.957l591.04 246.72c22.699 9.493 23.723 30.293 23.403 36.544-.214 6.229-2.859 26.944-26.176 34.602l-167.894 76.587a131.456 131.456 0 0 0-83.029 82.603L493.29 820.352z"/></svg>