<svg xmlns="http://www.w3.org/2000/svg" fill="none" viewBox="0 0 48 48"><path fill="#000" fill-rule="evenodd" d="M7.172 7.172A4 4 0 0 1 10 6h8a4 4 0 0 1 4 4v8a4 4 0 0 1-4 4h-8a4 4 0 0 1-4-4v-8a4 4 0 0 1 1.172-2.828ZM18 10h-8v8h8v-8Zm-4 22a2 2 0 0 1 2 2v.02a2 2 0 1 1-4 0V34a2 2 0 0 1 2-2ZM27.172 7.172A4 4 0 0 1 30 6h8a4 4 0 0 1 4 4v8a4 4 0 0 1-4 4h-8a4 4 0 0 1-4-4v-8a4 4 0 0 1 1.172-2.828ZM38 10h-8v8h8v-8Z" clip-rule="evenodd"/><path fill="#000" fill-rule="evenodd" d="M14 12a2 2 0 0 1 2 2v.02a2 2 0 1 1-4 0V14a2 2 0 0 1 2-2ZM7.172 27.172A4 4 0 0 1 10 26h8a4 4 0 0 1 4 4v8a4 4 0 0 1-4 4h-8a4 4 0 0 1-4-4v-8a4 4 0 0 1 1.172-2.828ZM18 30h-8v8h8v-8Zm16-18a2 2 0 0 1 2 2v.02a2 2 0 1 1-4 0V14a2 2 0 0 1 2-2Zm6 14a2 2 0 0 1 2 2v.02a2 2 0 1 1-4 0V28a2 2 0 0 1 2-2Zm-12 0a2 2 0 0 0-2 2v6a2 2 0 1 0 4 0v-4h4a2 2 0 1 0 0-4h-6Zm-2 14a2 2 0 0 1 2-2h6a2 2 0 1 1 0 4h-6a2 2 0 0 1-2-2Z" clip-rule="evenodd"/><path fill="#000" fill-rule="evenodd" d="M34 32a2 2 0 1 0 0 4h4v4a2 2 0 1 0 4 0v-6a2 2 0 0 0-2-2h-6Z" clip-rule="evenodd"/></svg>