<svg xmlns="http://www.w3.org/2000/svg" class="receipt_svg__icon" data-spm-anchor-id="a313x.7781069.1998910419.i5" viewBox="0 0 1024 1024"><path d="M298.667 170.667A42.667 42.667 0 0 0 256 213.333v602.944l61.653-41.109a42.667 42.667 0 0 1 53.846 5.333l55.168 55.168 55.168-55.168a42.667 42.667 0 0 1 60.33 0l55.168 55.168 55.168-55.168a42.667 42.667 0 0 1 53.824-5.333L768 816.278V213.332a42.667 42.667 0 0 0-42.667-42.666H298.667zm-90.518-47.851a128 128 0 0 1 90.518-37.483h426.666a128 128 0 0 1 128 128V896a42.667 42.667 0 0 1-66.346 35.499l-98.88-65.92-60.587 60.586a42.667 42.667 0 0 1-60.373 0L512 870.997l-55.168 55.168a42.667 42.667 0 0 1-60.33 0l-60.587-60.586-98.923 65.92A42.667 42.667 0 0 1 170.667 896V213.333a128 128 0 0 1 37.482-90.517zm133.184 175.85A42.667 42.667 0 0 1 384 256h256a42.667 42.667 0 1 1 0 85.333H384a42.667 42.667 0 0 1-42.667-42.666zm0 170.667A42.667 42.667 0 0 1 384 426.667h256A42.667 42.667 0 1 1 640 512H384a42.667 42.667 0 0 1-42.667-42.667zM512 640a42.667 42.667 0 0 1 42.667-42.667H640a42.667 42.667 0 1 1 0 85.334h-85.333A42.667 42.667 0 0 1 512 640z"/></svg>