<svg xmlns="http://www.w3.org/2000/svg" class="rotate_svg__icon" viewBox="0 0 1024 1024"><path d="M511.424 196.736a317.141 317.141 0 0 0-209.323 77.995 314.901 314.901 0 0 0-105.386 196.288 45.184 45.184 0 0 1-50.71 38.826 45.077 45.077 0 0 1-38.954-50.517 404.885 404.885 0 0 1 135.53-252.395A407.765 407.765 0 0 1 511.68 106.667a407.744 407.744 0 0 1 268.501 101.866A404.16 404.16 0 0 1 846.87 739.99a406.827 406.827 0 0 1-235.072 164.544 408.256 408.256 0 0 1-285.61-31.146 406.57 406.57 0 0 1-129.11-102.891v100.01a45.12 45.12 0 0 1-45.205 45.035c-24.939 0-45.205-20.16-45.205-45.034V645.312c0-24.853 20.245-45.013 45.226-45.013H377.9c24.96 0 45.205 20.16 45.205 45.013a45.12 45.12 0 0 1-45.227 45.056H249.515a316.075 316.075 0 0 0 117.61 102.699 317.525 317.525 0 0 0 222.123 24.256 316.437 316.437 0 0 0 182.827-128 314.325 314.325 0 0 0-51.84-413.355 317.12 317.12 0 0 0-208.854-79.232z"/></svg>