<svg xmlns="http://www.w3.org/2000/svg" fill="none" viewBox="0 0 48 48"><path fill="#000" fill-rule="evenodd" d="M22.243 5.757A6 6 0 0 0 18 4h-8a6 6 0 0 0-6 6v24a10 10 0 0 0 20 0V10a6 6 0 0 0-1.757-4.243ZM18 8a2 2 0 0 1 2 2v24a6 6 0 1 1-12 0V10a2 2 0 0 1 2-2h8Z" clip-rule="evenodd"/><path fill="#000" fill-rule="evenodd" d="M33.07 9.286a6 6 0 0 0-8.484 0l-4 4a2 2 0 1 0 2.828 2.828l4-4a2 2 0 0 1 2.828 0m0 0 5.656 5.656a2 2 0 0 1 0 2.828l-18 18a2 2 0 1 0 2.828 2.828l18-18a6 6 0 0 0 0-8.484L33.07 9.286" clip-rule="evenodd"/><path fill="#000" fill-rule="evenodd" d="M42.243 25.757A6 6 0 0 0 38 24h-4.6a2 2 0 1 0 0 4H38a2 2 0 0 1 2 2v8a2 2 0 0 1-2 2H14a2 2 0 1 0 0 4h24a6 6 0 0 0 6-6v-8a6 6 0 0 0-1.757-4.243ZM14 32a2 2 0 0 0-2 2v.02a2 2 0 1 0 4 0V34a2 2 0 0 0-2-2Z" clip-rule="evenodd"/></svg>