<svg xmlns="http://www.w3.org/2000/svg" fill="none" viewBox="0 0 48 48"><path fill="#000" fill-rule="evenodd" d="M12 10a2 2 0 0 0-2 2v24a2 2 0 0 0 2 2h24a2 2 0 0 0 2-2V16.828L31.172 10H12ZM7.757 7.757A6 6 0 0 1 12 6h20a2 2 0 0 1 1.414.586l8 8A2 2 0 0 1 42 16v20a6 6 0 0 1-6 6H12a6 6 0 0 1-6-6V12a6 6 0 0 1 1.757-4.243Z" clip-rule="evenodd"/><path fill="#000" fill-rule="evenodd" d="M19.757 23.757a6 6 0 1 1 8.485 8.485 6 6 0 0 1-8.485-8.485ZM24 26a2 2 0 1 0 0 4 2 2 0 0 0 0-4ZM16 6a2 2 0 0 1 2 2v6h8V8a2 2 0 1 1 4 0v8a2 2 0 0 1-2 2H16a2 2 0 0 1-2-2V8a2 2 0 0 1 2-2Z" clip-rule="evenodd"/></svg>