<svg xmlns="http://www.w3.org/2000/svg" fill="none" viewBox="0 0 48 48"><path fill="#000" fill-rule="evenodd" d="M23.757 7.757a6 6 0 1 1 8.486 8.485 6 6 0 0 1-8.486-8.485ZM28 10a2 2 0 1 0 0 4 2 2 0 0 0 0-4Z" clip-rule="evenodd"/><path fill="#000" fill-rule="evenodd" d="M6 12a2 2 0 0 1 2-2h16a2 2 0 1 1 0 4H8a2 2 0 0 1-2-2Zm24 0a2 2 0 0 1 2-2h8a2 2 0 1 1 0 4h-8a2 2 0 0 1-2-2Zm-18.243 7.757a6 6 0 1 1 8.485 8.485 6 6 0 0 1-8.485-8.485ZM16 22a2 2 0 1 0 0 4 2 2 0 0 0 0-4Z" clip-rule="evenodd"/><path fill="#000" fill-rule="evenodd" d="M6 24a2 2 0 0 1 2-2h4a2 2 0 1 1 0 4H8a2 2 0 0 1-2-2Zm12 0a2 2 0 0 1 2-2h20a2 2 0 1 1 0 4H20a2 2 0 0 1-2-2Zm11.757 7.757a6 6 0 1 1 8.485 8.485 6 6 0 0 1-8.485-8.485ZM34 34a2 2 0 1 0 0 4 2 2 0 0 0 0-4Z" clip-rule="evenodd"/><path fill="#000" fill-rule="evenodd" d="M6 36a2 2 0 0 1 2-2h22a2 2 0 1 1 0 4H8a2 2 0 0 1-2-2Zm30 0a2 2 0 0 1 2-2h2a2 2 0 1 1 0 4h-2a2 2 0 0 1-2-2Z" clip-rule="evenodd"/></svg>