<svg xmlns="http://www.w3.org/2000/svg" class="setting_svg__icon" viewBox="0 0 1024 1024"><path d="M488.79 169.088a51.584 51.584 0 0 1 48.98 0l254.209 149.91a40.532 40.532 0 0 0 6.314 4.458 47.488 47.488 0 0 1 24.022 41.6v282.795c0 17.088-9.387 33.066-24.811 41.557a38.912 38.912 0 0 0-2.048 1.216L534.784 855.531a49.237 49.237 0 0 1-45.568 0L228.544 690.624a37.547 37.547 0 0 0-2.133-1.259 47.53 47.53 0 0 1-24.726-41.557V365.269a47.445 47.445 0 0 1 25.814-42.112l261.29-154.069zm356.373 92.245a38.933 38.933 0 0 0-6.72-5.013L576.64 101.973a129.173 129.173 0 0 0-126.677 0l-261.398 154.07a125.013 125.013 0 0 0-64.469 109.226v282.624a125.099 125.099 0 0 0 63.936 108.864l260.885 165.035c.662.427 1.366.853 2.048 1.216a126.805 126.805 0 0 0 124.139-1.216l260.907-165.056a125.077 125.077 0 0 0 63.893-108.907V365.376a125.099 125.099 0 0 0-54.741-104.064z"/><path d="M402.283 402.283a155.157 155.157 0 1 1 219.434 219.434 155.157 155.157 0 0 1-219.434-219.434zM512 434.432a77.59 77.59 0 1 0 0 155.157 77.59 77.59 0 0 0 0-155.157z"/></svg>