<svg xmlns="http://www.w3.org/2000/svg" fill="none" viewBox="0 0 48 48"><path fill="#000" fill-rule="evenodd" d="M6.343 18.343a8 8 0 1 1 11.314 11.315A8 8 0 0 1 6.343 18.343ZM12 20a4 4 0 1 0 0 8 4 4 0 0 0 0-8ZM30.343 6.343a8 8 0 1 1 11.314 11.314A8 8 0 0 1 30.343 6.343ZM36 8a4 4 0 1 0 0 8 4 4 0 0 0 0-8Zm-5.657 22.343a8 8 0 1 1 11.314 11.315 8 8 0 0 1-11.314-11.315ZM36 32a4 4 0 1 0 0 8 4 4 0 0 0 0-8Z" clip-rule="evenodd"/><path fill="#000" fill-rule="evenodd" d="M32.378 13.684a2 2 0 0 1-.862 2.694l-13.2 6.8a2 2 0 0 1-1.832-3.556l13.2-6.8a2 2 0 0 1 2.694.862Zm-16.756 12a2 2 0 0 1 2.694-.862l13.2 6.8a2 2 0 0 1-1.832 3.556l-13.2-6.8a2 2 0 0 1-.862-2.694Z" clip-rule="evenodd"/></svg>