<svg xmlns="http://www.w3.org/2000/svg" class="spac-vertical_svg__icon" data-spm-anchor-id="a313x.7781069.1998910419.i3" viewBox="0 0 1024 1024"><path d="M229.93 270.23a40.299 40.299 0 0 0 40.3 40.298h483.54a40.32 40.32 0 0 0 40.32-40.32v-80.555a40.299 40.299 0 0 1 80.577 0v80.598A120.896 120.896 0 0 1 753.77 391.125H270.229A120.896 120.896 0 0 1 149.333 270.23v-80.597a40.299 40.299 0 1 1 80.598 0v80.597zm-40.298 604.437a40.299 40.299 0 0 1-40.299-40.299v-80.597A120.896 120.896 0 0 1 270.23 632.896h483.542a120.896 120.896 0 0 1 120.896 120.875v80.597a40.299 40.299 0 0 1-80.598 0v-80.597a40.299 40.299 0 0 0-40.298-40.299H270.229a40.32 40.32 0 0 0-40.32 40.32v80.576a40.299 40.299 0 0 1-40.256 40.299zM310.528 512c0-22.25 18.027-40.299 40.277-40.299h322.368a40.299 40.299 0 0 1 0 80.598H350.827A40.299 40.299 0 0 1 310.485 512z"/></svg>