<svg xmlns="http://www.w3.org/2000/svg" class="spac-horizontal_svg__icon" viewBox="0 0 1024 1024"><path d="M753.77 229.93a40.299 40.299 0 0 0-40.298 40.3v483.54a40.299 40.299 0 0 0 40.32 40.32h80.576a40.299 40.299 0 0 1 0 80.577h-80.597A120.896 120.896 0 0 1 632.896 753.77V270.229a120.896 120.896 0 0 1 120.875-120.896h80.597a40.299 40.299 0 1 1 0 80.598h-80.597zm-604.437-40.298c0-22.25 18.048-40.299 40.299-40.299h80.597A120.896 120.896 0 0 1 391.104 270.23v483.542a120.896 120.896 0 0 1-120.875 120.896h-80.597a40.299 40.299 0 0 1 0-80.598h80.597a40.299 40.299 0 0 0 40.299-40.298V270.229a40.32 40.32 0 0 0-40.32-40.32h-80.555a40.299 40.299 0 0 1-40.32-40.256zM512 310.528c22.25 0 40.299 18.027 40.299 40.277v322.368a40.299 40.299 0 0 1-80.598 0V350.827c0-22.272 18.048-40.32 40.299-40.32z" data-spm-anchor-id="a313x.7781069.1998910419.i4"/></svg>