<svg xmlns="http://www.w3.org/2000/svg" fill="none" viewBox="0 0 48 48"><path fill="#000" fill-rule="evenodd" d="M18.586 18.586a2 2 0 0 1 2.828 0L24 21.172l2.586-2.586a2 2 0 1 1 2.828 2.828L26.828 24l2.586 2.586a2 2 0 1 1-2.828 2.828L24 26.828l-2.586 2.586a2 2 0 1 1-2.828-2.828L21.172 24l-2.586-2.586a2 2 0 0 1 0-2.828Z" clip-rule="evenodd"/><path fill="#000" fill-rule="evenodd" d="M11.014 11.014C8.95 13.078 8 16.786 8 24s.95 10.922 3.014 12.986S16.786 40 24 40s10.922-.95 12.986-3.014S40 31.214 40 24s-.95-10.922-3.014-12.986S31.214 8 24 8s-10.922.95-12.986 3.014ZM8.186 8.186C11.522 4.85 16.814 4 24 4s12.478.85 15.814 4.186C43.15 11.522 44 16.814 44 24s-.85 12.478-4.186 15.814C36.478 43.15 31.186 44 24 44s-12.478-.85-15.814-4.186C4.85 36.478 4 31.186 4 24s.85-12.478 4.186-15.814Z" clip-rule="evenodd"/></svg>