<svg xmlns="http://www.w3.org/2000/svg" class="star_svg__icon" viewBox="0 0 1024 1024"><path d="M512 64c14.23 0 27.435 7.51 34.773 19.776l109.782 183.85H876.8c14.592 0 28.075 7.894 35.264 20.673a40.896 40.896 0 0 1-.512 41.024L802.475 512l109.077 182.677c7.51 12.587 7.723 28.267.512 41.024a40.512 40.512 0 0 1-35.264 20.672H656.555L546.752 940.224A40.49 40.49 0 0 1 512 960a40.49 40.49 0 0 1-34.773-19.776l-109.782-183.85H147.2c-14.613 0-28.075-7.894-35.264-20.673a40.896 40.896 0 0 1 .512-41.024L221.525 512 112.448 329.323a40.896 40.896 0 0 1-.512-41.024 40.49 40.49 0 0 1 35.264-20.651h220.245L477.248 83.755A40.49 40.49 0 0 1 512 64zm0 119.893-86.827 145.43a40.49 40.49 0 0 1-34.773 19.776H218.795l84.757 141.952c7.701 12.885 7.701 29.013 0 41.898l-84.757 141.952H390.4c14.23 0 27.435 7.51 34.773 19.776L512 840.107l86.827-145.43a40.49 40.49 0 0 1 34.773-19.776h171.605L720.448 532.95a40.875 40.875 0 0 1 0-41.898L805.205 349.1H633.6a40.49 40.49 0 0 1-34.773-19.776L512 183.893z"/></svg>