<svg xmlns="http://www.w3.org/2000/svg" fill="none" viewBox="0 0 48 48"><path fill="#000" fill-rule="evenodd" d="M38 8a2 2 0 1 0 0 4 2 2 0 0 0 0-4Zm-4.243-2.243a6 6 0 1 1 8.486 8.485 6 6 0 0 1-8.486-8.485ZM10 36a2 2 0 1 0 0 4 2 2 0 0 0 0-4Zm-4.243-2.243a6 6 0 1 1 8.485 8.485 6 6 0 0 1-8.485-8.485Z" clip-rule="evenodd"/><path fill="#000" fill-rule="evenodd" d="M8.636 10.636A9 9 0 0 1 15 8h19a2 2 0 1 1 0 4H15a5 5 0 1 0 0 10h18a9 9 0 0 1 0 18H14a2 2 0 1 1 0-4h19a5 5 0 1 0 0-10H15a9 9 0 0 1-6.364-15.364Z" clip-rule="evenodd"/></svg>