<svg xmlns="http://www.w3.org/2000/svg" fill="none" viewBox="0 0 48 48"><path fill="#000" fill-rule="evenodd" d="M4 42a2 2 0 0 1 2-2h36a2 2 0 1 1 0 4H6a2 2 0 0 1-2-2Z" clip-rule="evenodd"/><path fill="#000" fill-rule="evenodd" d="M10 19.7a2 2 0 0 1 2 2V42a2 2 0 0 1-4 0V21.7a2 2 0 0 1 2-2Zm28 0a2 2 0 0 1 2 2V42a2 2 0 0 1-4 0V21.7a2 2 0 0 1 2-2ZM22 32a2 2 0 0 0-2 2v8a2 2 0 1 1-4 0v-8a6 6 0 0 1 6-6h4a6 6 0 0 1 6 6v8a2 2 0 1 1-4 0v-8a2 2 0 0 0-2-2h-4Z" clip-rule="evenodd"/><path fill="#000" d="M8.211 5.106A2 2 0 0 1 10 4h28a2 2 0 0 1 1.789 1.106l4 8A2 2 0 0 1 44 14v2a8 8 0 0 1-14 5.291 8 8 0 0 1-12 0A8 8 0 0 1 4 16v-2a2 2 0 0 1 .211-.894l4-8ZM20 16a4 4 0 1 0 8 0h-8ZM9.236 12h29.528l-2-4H11.236l-2 4ZM32 16a4 4 0 1 0 8 0h-8ZM8 16a4 4 0 1 0 8 0H8Z"/></svg>