<svg xmlns="http://www.w3.org/2000/svg" fill="none" viewBox="0 0 48 48"><path fill="#000" d="M24 38a2 2 0 0 1 1.986 1.766L26 40v2a2 2 0 0 1-3.986.234L22 42v-2a2 2 0 0 1 2-2Zm12.626-4.18.188.166 1.4 1.4a2 2 0 0 1-2.64 2.994l-.188-.166-1.4-1.4a2 2 0 0 1 2.436-3.134l.204.14Zm-22.612.166a2 2 0 0 1 .166 2.64l-.166.188-1.4 1.4a2 2 0 0 1-2.994-2.64l.166-.188 1.4-1.4a2 2 0 0 1 2.828 0ZM8 22a2 2 0 0 1 .234 3.986L8 26H6a2 2 0 0 1-.234-3.986L6 22h2Zm34 0a2 2 0 0 1 .234 3.986L42 26h-2a2 2 0 0 1-.234-3.986L40 22h2ZM12.426 9.62l.188.166 1.4 1.4a2 2 0 0 1-2.64 2.994l-.188-.166-1.4-1.4A2 2 0 0 1 12.22 9.48l.206.14Zm25.788.166a2 2 0 0 1 .166 2.64l-.166.188-1.4 1.4a2 2 0 0 1-2.994-2.64l.166-.188 1.4-1.4a2 2 0 0 1 2.828 0ZM24 4a2 2 0 0 1 1.986 1.766L26 6v2a2 2 0 0 1-3.986.234L22 8V6a2 2 0 0 1 2-2Zm0 10a10 10 0 1 1-9.99 10.434L14 24l.01-.434A10 10 0 0 1 24 14Z"/></svg>