<svg xmlns="http://www.w3.org/2000/svg" fill="none" viewBox="0 0 48 48"><path fill="#000" fill-rule="evenodd" d="M16.929 16.929A10 10 0 1 1 31.07 31.072a10 10 0 0 1-14.14-14.143ZM24 18a6 6 0 1 0 0 12 6 6 0 0 0 0-12Zm0-14a2 2 0 0 1 2 2v2a2 2 0 1 1-4 0V6a2 2 0 0 1 2-2ZM9.786 9.786a2 2 0 0 1 2.828 0l1.4 1.4a2 2 0 1 1-2.828 2.828l-1.4-1.4a2 2 0 0 1 0-2.828Zm28.428 0a2 2 0 0 1 0 2.828l-1.4 1.4a2 2 0 1 1-2.828-2.828l1.4-1.4a2 2 0 0 1 2.828 0ZM4 24a2 2 0 0 1 2-2h2a2 2 0 1 1 0 4H6a2 2 0 0 1-2-2Zm34 0a2 2 0 0 1 2-2h2a2 2 0 1 1 0 4h-2a2 2 0 0 1-2-2Zm-23.986 9.986a2 2 0 0 1 0 2.828l-1.4 1.4a2 2 0 1 1-2.828-2.828l1.4-1.4a2 2 0 0 1 2.828 0Zm19.972 0a2 2 0 0 1 2.828 0l1.4 1.4a2 2 0 1 1-2.828 2.828l-1.4-1.4a2 2 0 0 1 0-2.828ZM24 38a2 2 0 0 1 2 2v2a2 2 0 1 1-4 0v-2a2 2 0 0 1 2-2Z" clip-rule="evenodd"/></svg>