<svg xmlns="http://www.w3.org/2000/svg" class="icon" style="width:1em;height:1em;vertical-align:middle;fill:currentColor;overflow:hidden" viewBox="0 0 1024 1024"><path fill="#000" d="M421.483 464.15a128 128 0 1 1 181.013 181.013 128 128 0 0 1-181.013-181.014zM512 512a42.667 42.667 0 1 0 0 85.333A42.667 42.667 0 0 0 512 512zm-85.333 298.667A42.667 42.667 0 0 0 384 853.333V896a42.667 42.667 0 1 1-85.333 0v-42.667a128 128 0 0 1 128-128h170.666a128 128 0 0 1 128 128V896A42.667 42.667 0 1 1 640 896v-42.667a42.667 42.667 0 0 0-42.667-42.666H426.667zm208.149-687.851a128 128 0 1 1 181.035 181.013 128 128 0 0 1-181.035-181.013zm90.517 47.85a42.667 42.667 0 1 0 0 85.334 42.667 42.667 0 0 0 0-85.333zm-42.666 256A42.667 42.667 0 0 1 725.333 384h85.334a128 128 0 0 1 128 128v42.667a42.667 42.667 0 1 1-85.334 0V512a42.667 42.667 0 0 0-42.666-42.667h-85.334a42.667 42.667 0 0 1-42.666-42.666zm-474.518-303.85a128 128 0 1 1 181.035 181.035 128 128 0 0 1-181.035-181.035zm90.518 47.85a42.667 42.667 0 1 0 0 85.334 42.667 42.667 0 0 0 0-85.333zm-85.334 298.667A42.667 42.667 0 0 0 170.667 512v42.667a42.667 42.667 0 1 1-85.334 0V512a128 128 0 0 1 128-128h85.334a42.667 42.667 0 1 1 0 85.333h-85.334z"/></svg>