<svg xmlns="http://www.w3.org/2000/svg" fill="none" viewBox="0 0 48 48"><path fill="#000" fill-rule="evenodd" d="M14 14a6 6 0 0 0-6 6v12a6 6 0 0 0 6 6h20a6 6 0 0 0 6-6V20a6 6 0 0 0-6-6H14Zm-7.071-1.071A10 10 0 0 1 14 10h20a10 10 0 0 1 10 10v12a10 10 0 0 1-10 10H14A10 10 0 0 1 4 32V20a10 10 0 0 1 2.929-7.071Z" clip-rule="evenodd"/><path fill="#000" fill-rule="evenodd" d="M14.89 4.336a2 2 0 0 1 2.774.555l4 6a2 2 0 0 1-3.328 2.218l-4-6a2 2 0 0 1 .555-2.773Zm18.22 0a2 2 0 0 1 .554 2.773l-4 6a2 2 0 1 1-3.328-2.218l4-6a2 2 0 0 1 2.773-.555ZM18 20a2 2 0 0 1 2 2v4a2 2 0 1 1-4 0v-4a2 2 0 0 1 2-2Zm12 0a2 2 0 0 1 2 2v4a2 2 0 1 1-4 0v-4a2 2 0 0 1 2-2Z" clip-rule="evenodd"/></svg>