<svg xmlns="http://www.w3.org/2000/svg" fill="none" viewBox="0 0 48 48"><path fill="#000" d="M33.927 6c1.52-.098 2.897.548 3.932 1.584 1.041 1.04 1.735 2.455 2.088 3.96l.014.064 2 10c.026.129.039.26.039.392a6 6 0 0 1-6 6h-4v8a6 6 0 1 1-12 0v-2a6 6 0 0 0-6-6H8a4 4 0 0 1-4-4V10a4 4 0 0 1 4-4h4a4 4 0 0 1 3.2 1.6A8 8 0 0 1 20 6h13.927ZM12 10H8v14h4V10Zm4 14.202A10 10 0 0 1 24 34v2a2 2 0 0 0 4 0V26a2 2 0 0 1 2-2h6a2 2 0 0 0 1.993-1.836l-1.947-9.737c-.224-.934-.617-1.617-1.015-2.015-.385-.385-.688-.434-.861-.42A1.996 1.996 0 0 1 34 10H20a4 4 0 0 0-4 4v10.202Z"/></svg>