<svg xmlns="http://www.w3.org/2000/svg" fill="none" viewBox="0 0 48 48"><path fill="#000" fill-rule="evenodd" d="M26 10a2 2 0 0 0-2 2v2a10 10 0 0 1-8 9.798V34a4 4 0 0 0 4 4h14c.057 0 .113.002.17.007.173.015.476-.034.861-.42.398-.398.79-1.08 1.015-2.014l1.947-9.737A2 2 0 0 0 36 24h-6a2 2 0 0 1-2-2V12a2 2 0 0 0-2-2ZM15.2 40.4A3.994 3.994 0 0 1 12 42H8a4 4 0 0 1-4-4V24a4 4 0 0 1 4-4h6a6 6 0 0 0 6-6v-2a6 6 0 1 1 12 0v8h4a6 6 0 0 1 6 6c0 .132-.013.263-.039.392l-2 10a2.047 2.047 0 0 1-.014.064c-.353 1.505-1.047 2.92-2.088 3.96-1.035 1.036-2.413 1.682-3.932 1.584H20a8 8 0 0 1-4.8-1.6ZM12 24H8v14h4V24Z" clip-rule="evenodd"/></svg>