<svg xmlns="http://www.w3.org/2000/svg" class="time_svg__icon" viewBox="0 0 1024 1024"><path fill="#333" d="M512.7 959.8c-247 0-448-201-448-448s201-448 448-448 448 201 448 448-200.9 448-448 448zm0-806.4c-197.6 0-358.4 160.8-358.4 358.4s160.8 358.4 358.4 358.4 358.4-160.8 358.4-358.4-160.7-358.4-358.4-358.4z"/><path fill="#333" d="M700 576.8H512.7c-24.6 0-44.6-19.9-44.8-44.5L466 254.5c-.2-24.7 19.8-44.9 44.5-45.1h.3c24.6 0 44.6 19.9 44.8 44.5l1.6 233.3H700c24.7 0 44.8 20.1 44.8 44.8 0 24.7-20.1 44.8-44.8 44.8z"/></svg>