<svg xmlns="http://www.w3.org/2000/svg" fill="none" viewBox="0 0 48 48"><path fill="#000" fill-rule="evenodd" d="M4 34a2 2 0 0 1 2-2h36a2 2 0 1 1 0 4H6a2 2 0 0 1-2-2Zm9.414-27.414a2 2 0 0 1 0 2.828L8.828 14l4.586 4.586a2 2 0 1 1-2.828 2.828l-6-6a2 2 0 0 1 0-2.828l6-6a2 2 0 0 1 2.828 0Z" clip-rule="evenodd"/><path fill="#000" fill-rule="evenodd" d="M4 14a2 2 0 0 1 2-2h36a2 2 0 1 1 0 4H6a2 2 0 0 1-2-2Zm30.586 12.586a2 2 0 0 1 2.828 0l6 6a2 2 0 0 1 0 2.828l-6 6a2 2 0 1 1-2.828-2.828L39.172 34l-4.586-4.586a2 2 0 0 1 0-2.828Z" clip-rule="evenodd"/></svg>