<svg xmlns="http://www.w3.org/2000/svg" fill="none" viewBox="0 0 48 48"><path fill="#000" fill-rule="evenodd" d="M14 6a2 2 0 0 1-2 2 4 4 0 0 0-4 4v24a4 4 0 0 0 4 4 2 2 0 0 1 0 4 8 8 0 0 1-8-8V12a8 8 0 0 1 8-8 2 2 0 0 1 2 2Zm26 6a4 4 0 0 0-8 0v24a4 4 0 1 0 8 0V12Zm1.657-5.657A8 8 0 0 1 44 12v24a8 8 0 0 1-16 0V12a8 8 0 0 1 13.657-5.657Z" clip-rule="evenodd"/><path fill="#000" fill-rule="evenodd" d="M32 24a2 2 0 0 1-2 2H14a2 2 0 1 1 0-4h16a2 2 0 0 1 2 2Z" clip-rule="evenodd"/><path fill="#000" fill-rule="evenodd" d="M21.414 16.586a2 2 0 0 1 0 2.828L16.828 24l4.586 4.586a2 2 0 0 1-2.829 2.828l-6-6a2 2 0 0 1 0-2.828l6-6a2 2 0 0 1 2.829 0Z" clip-rule="evenodd"/></svg>