<svg xmlns="http://www.w3.org/2000/svg" fill="none" viewBox="0 0 48 48"><path fill="#000" fill-rule="evenodd" d="M42 14a2 2 0 0 1-2-2 4 4 0 0 0-4-4H12a4 4 0 0 0-4 4 2 2 0 1 1-4 0 8 8 0 0 1 8-8h24a8 8 0 0 1 8 8 2 2 0 0 1-2 2Zm-6 26a4 4 0 1 0 0-8H12a4 4 0 1 0 0 8h24Zm5.657 1.657A8 8 0 0 1 36 44H12a8 8 0 0 1 0-16h24a8 8 0 0 1 5.657 13.657Z" clip-rule="evenodd"/><path fill="#000" fill-rule="evenodd" d="M24 32a2 2 0 0 1-2-2V14a2 2 0 1 1 4 0v16a2 2 0 0 1-2 2Z" clip-rule="evenodd"/><path fill="#000" fill-rule="evenodd" d="M31.414 21.414a2 2 0 0 1-2.828 0L24 16.828l-4.586 4.586a2 2 0 1 1-2.828-2.828l6-6a2 2 0 0 1 2.828 0l6 6a2 2 0 0 1 0 2.828Z" clip-rule="evenodd"/></svg>