<svg xmlns="http://www.w3.org/2000/svg" fill="none" viewBox="0 0 48 48"><path fill="#000" fill-rule="evenodd" d="M6 34a2 2 0 0 1 2 2 4 4 0 0 0 4 4h24a4 4 0 0 0 4-4 2 2 0 1 1 4 0 8 8 0 0 1-8 8H12a8 8 0 0 1-8-8 2 2 0 0 1 2-2Zm6-26a4 4 0 1 0 0 8h24a4 4 0 1 0 0-8H12ZM6.343 6.343A8 8 0 0 1 12 4h24a8 8 0 0 1 0 16H12A8 8 0 0 1 6.343 6.343Z" clip-rule="evenodd"/><path fill="#000" fill-rule="evenodd" d="M24 16a2 2 0 0 1 2 2v16a2 2 0 1 1-4 0V18a2 2 0 0 1 2-2Z" clip-rule="evenodd"/><path fill="#000" fill-rule="evenodd" d="M16.586 26.586a2 2 0 0 1 2.828 0L24 31.172l4.586-4.586a2 2 0 1 1 2.828 2.828l-6 6a2 2 0 0 1-2.828 0l-6-6a2 2 0 0 1 0-2.828Z" clip-rule="evenodd"/></svg>