<svg xmlns="http://www.w3.org/2000/svg" fill="none" viewBox="0 0 48 48"><path fill="#000" fill-rule="evenodd" d="M34 42a2 2 0 0 1 2-2 4 4 0 0 0 4-4V12a4 4 0 0 0-4-4 2 2 0 1 1 0-4 8 8 0 0 1 8 8v24a8 8 0 0 1-8 8 2 2 0 0 1-2-2ZM8 36a4 4 0 1 0 8 0V12a4 4 0 0 0-8 0v24Zm-1.657 5.657A8 8 0 0 1 4 36V12a8 8 0 0 1 16 0v24a8 8 0 0 1-13.657 5.657Z" clip-rule="evenodd"/><path fill="#000" fill-rule="evenodd" d="M16 24a2 2 0 0 1 2-2h16a2 2 0 0 1 0 4H18a2 2 0 0 1-2-2Z" clip-rule="evenodd"/><path fill="#000" fill-rule="evenodd" d="M26.585 31.414a2 2 0 0 1 0-2.828L31.172 24l-4.585-4.586a2 2 0 0 1 2.828-2.828l6 6a2 2 0 0 1 0 2.828l-6 6a2 2 0 0 1-2.829 0Z" clip-rule="evenodd"/></svg>