<svg xmlns="http://www.w3.org/2000/svg" fill="none" viewBox="0 0 48 48"><path fill="#000" fill-rule="evenodd" d="M12 10a4 4 0 0 0-4 4v4a4 4 0 0 0 4 4h20a2 2 0 1 1 0 4H12a8 8 0 0 1-8-8v-4a8 8 0 0 1 8-8h24a8 8 0 0 1 8 8v4a2 2 0 1 1-4 0v-4a4 4 0 0 0-4-4H12Z" clip-rule="evenodd"/><path fill="#000" fill-rule="evenodd" d="M12 26a4 4 0 0 0-4 4v4a4 4 0 0 0 4 4h12a2 2 0 1 1 0 4H12a8 8 0 0 1-8-8v-4a8 8 0 0 1 8-8h20a2 2 0 1 1 0 4H12Zm2-12a2 2 0 0 1 2 2v.02a2 2 0 1 1-4 0V16a2 2 0 0 1 2-2Z" clip-rule="evenodd"/><path fill="#000" fill-rule="evenodd" d="M14 30a2 2 0 0 1 2 2v.02a2 2 0 1 1-4 0V32a2 2 0 0 1 2-2Zm22.586-5.414a2 2 0 0 1 2.828 0l4 4A2 2 0 0 1 42 32h-6a2 2 0 1 1 0-4h1.172l-.586-.586a2 2 0 0 1 0-2.828Z" clip-rule="evenodd"/><path fill="#000" fill-rule="evenodd" d="M43.414 28.586a2 2 0 0 1 0 2.828l-4 4a2 2 0 1 1-2.828-2.828l4-4a2 2 0 0 1 2.828 0Z" clip-rule="evenodd"/><path fill="#000" fill-rule="evenodd" d="M32.278 28.919A8 8 0 0 1 36 28a2 2 0 1 1 0 4 4.001 4.001 0 1 0 2.667 6.981 2 2 0 0 1 2.666 2.982 8 8 0 1 1-9.055-13.044Z" clip-rule="evenodd"/></svg>