<svg xmlns="http://www.w3.org/2000/svg" fill="none" viewBox="0 0 48 48"><path fill="#000" fill-rule="evenodd" d="M36 10a2 2 0 0 1 2 2v24a2 2 0 0 1-2 2H12a2 2 0 0 1-2-2V12a2 2 0 0 1 2-2h24ZM12 6a6 6 0 0 0-6 6v24a6 6 0 0 0 6 6h24a6 6 0 0 0 6-6V12a6 6 0 0 0-6-6H12Z" clip-rule="evenodd"/><path fill="#000" fill-rule="evenodd" d="M21 21a2 2 0 1 1 0-4 2 2 0 0 1 0 4Zm0 4a6 6 0 1 0 0-12 6 6 0 0 0 0 12Zm-3 6a2 2 0 0 0-2 2 2 2 0 1 1-4 0 6 6 0 0 1 6-6h6a6 6 0 0 1 6 6 2 2 0 1 1-4 0 2 2 0 0 0-2-2h-6Z" clip-rule="evenodd"/><path fill="#000" d="M32 15a2 2 0 1 1 4 0v2a2 2 0 1 1-4 0v-2Zm0 16a2 2 0 1 1 4 0v2a2 2 0 1 1-4 0v-2Zm0-8a2 2 0 1 1 4 0v2a2 2 0 1 1-4 0v-2Z"/></svg>