<svg xmlns="http://www.w3.org/2000/svg" fill="none" viewBox="0 0 48 48"><path fill="#000" fill-rule="evenodd" d="M16.346 5.522a20 20 0 1 1 15.308 36.956A20 20 0 0 1 16.346 5.522ZM24 8a16 16 0 1 0 0 32 16 16 0 0 0 0-32Z" clip-rule="evenodd"/><path fill="#000" fill-rule="evenodd" d="M18.343 14.343a8 8 0 1 1 11.314 11.315 8 8 0 0 1-11.314-11.315ZM24 16a4 4 0 1 0 0 8 4 4 0 0 0 0-8Zm7.586 19.188A6 6 0 0 0 28.001 34H20a6.001 6.001 0 0 0-5.749 4.273 2 2 0 1 1-3.83-1.15A10 10 0 0 1 20 30h8a10.002 10.002 0 0 1 9.584 7.138 2 2 0 0 1-3.832 1.145 6 6 0 0 0-2.166-3.095Z" clip-rule="evenodd"/></svg>