<svg xmlns="http://www.w3.org/2000/svg" class="video_svg__icon" viewBox="0 0 1024 1024"><path d="M512 870.4c-197.93 0-358.4-160.47-358.4-358.4S314.07 153.6 512 153.6 870.4 314.07 870.4 512 709.93 870.4 512 870.4zm0 89.6c247.424 0 448-200.576 448-448S759.424 64 512 64 64 264.576 64 512s200.576 448 448 448z"/><path d="M608 493.525a21.333 21.333 0 0 1 0 36.95l-128 73.898a21.333 21.333 0 0 1-32-18.474V438.1a21.333 21.333 0 0 1 32-18.474l128 73.898zm-85.333-147.797c-71.104-41.067-160 10.24-160 92.373V585.9c0 82.133 88.896 133.44 160 92.373l128-73.899c71.125-41.045 71.125-143.701 0-184.746l-128-73.899z"/></svg>