<svg xmlns="http://www.w3.org/2000/svg" fill="none" viewBox="0 0 48 48"><path fill="#000" fill-rule="evenodd" d="M31.586 7.586a6.243 6.243 0 1 1 8.828 8.828l-24 24a6.243 6.243 0 0 1-8.828-8.828l24-24Zm6 2.828a2.243 2.243 0 0 0-3.172 0l-24 24a2.243 2.243 0 0 0 3.172 3.172l24-24a2.243 2.243 0 0 0 0-3.172Z" clip-rule="evenodd"/><path fill="#000" fill-rule="evenodd" d="M28.586 10.586a2 2 0 0 1 2.828 0l6 6a2 2 0 1 1-2.828 2.828l-6-6a2 2 0 0 1 0-2.828ZM18 4a2 2 0 0 1 2 2 2 2 0 0 0 2 2 2 2 0 1 1 0 4 2 2 0 0 0-2 2 2 2 0 1 1-4 0 2 2 0 0 0-2-2 2 2 0 1 1 0-4 2 2 0 0 0 2-2 2 2 0 0 1 2-2Zm20 20a2 2 0 0 1 2 2 2 2 0 0 0 2 2 2 2 0 1 1 0 4 2 2 0 0 0-2 2 2 2 0 1 1-4 0 2 2 0 0 0-2-2 2 2 0 1 1 0-4 2 2 0 0 0 2-2 2 2 0 0 1 2-2Z" clip-rule="evenodd"/></svg>